<svg width="368" height="490" viewBox="0 0 368 490" fill="none" xmlns="http://www.w3.org/2000/svg">
<rect y="420" width="368" height="70" fill="#E0E0E0" id="traces"/>
<rect opacity="0.5" x="110" y="350" width="258" height="70" fill="#E0E0E0" id="failures"/>
<rect x="110" y="280" width="86" height="70" fill="#AAAAAA" id="failure-traces"/>
<rect opacity="0.75" x="196" y="280" width="86" height="70" fill="#AAAAAA" id="readies"/>
<rect opacity="0.75" x="238" y="210" width="130" height="70" fill="#E0E0E0" id="possible-futures"/>
<rect opacity="0.75" x="238" y="140" width="130" height="70" fill="#AAAAAA" id="2-nested-2"/>
<rect opacity="0.75" y="70" width="368" height="70" fill="#AAAAAA" id="2-nested-1"/>
<rect opacity="0.75" width="368" height="70" fill="#E0E0E0" id="bisimulation"/>
<rect x="110" y="210" width="129" height="70" fill="#E0E0E0" id="ready-traces"/>
<rect y="140" width="238" height="70" fill="#F2F2F2" id="ready-simulation"/>
<rect opacity="0.5" x="282" y="280" width="86" height="70" fill="#AAAAAA" id="impossible futures"/>
<rect y="210" width="110" height="210" fill="#BDBDBD" id="simulation"/>
<path d="M169.291 451.125V452.66H170.475V453.498H169.291V457.43C169.291 457.684 169.344 457.875 169.449 458.004C169.555 458.129 169.734 458.191 169.988 458.191C170.113 458.191 170.285 458.168 170.504 458.121V459C170.219 459.078 169.941 459.117 169.672 459.117C169.188 459.117 168.822 458.971 168.576 458.678C168.33 458.385 168.207 457.969 168.207 457.43V453.498H167.053V452.66H168.207V451.125H169.291ZM174.811 453.633C174.646 453.605 174.469 453.592 174.277 453.592C173.566 453.592 173.084 453.895 172.83 454.5V459H171.746V452.66H172.801L172.818 453.393C173.174 452.826 173.678 452.543 174.33 452.543C174.541 452.543 174.701 452.57 174.811 452.625V453.633ZM179.492 459C179.43 458.875 179.379 458.652 179.34 458.332C178.836 458.855 178.234 459.117 177.535 459.117C176.91 459.117 176.396 458.941 175.994 458.59C175.596 458.234 175.396 457.785 175.396 457.242C175.396 456.582 175.646 456.07 176.146 455.707C176.65 455.34 177.357 455.156 178.268 455.156H179.322V454.658C179.322 454.279 179.209 453.979 178.982 453.756C178.756 453.529 178.422 453.416 177.98 453.416C177.594 453.416 177.27 453.514 177.008 453.709C176.746 453.904 176.615 454.141 176.615 454.418H175.525C175.525 454.102 175.637 453.797 175.859 453.504C176.086 453.207 176.391 452.973 176.773 452.801C177.16 452.629 177.584 452.543 178.045 452.543C178.775 452.543 179.348 452.727 179.762 453.094C180.176 453.457 180.391 453.959 180.406 454.6V457.518C180.406 458.1 180.48 458.562 180.629 458.906V459H179.492ZM177.693 458.174C178.033 458.174 178.355 458.086 178.66 457.91C178.965 457.734 179.186 457.506 179.322 457.225V455.924H178.473C177.145 455.924 176.48 456.312 176.48 457.09C176.48 457.43 176.594 457.695 176.82 457.887C177.047 458.078 177.338 458.174 177.693 458.174ZM184.648 458.232C185.035 458.232 185.373 458.115 185.662 457.881C185.951 457.646 186.111 457.354 186.143 457.002H187.168C187.148 457.365 187.023 457.711 186.793 458.039C186.562 458.367 186.254 458.629 185.867 458.824C185.484 459.02 185.078 459.117 184.648 459.117C183.785 459.117 183.098 458.83 182.586 458.256C182.078 457.678 181.824 456.889 181.824 455.889V455.707C181.824 455.09 181.938 454.541 182.164 454.061C182.391 453.58 182.715 453.207 183.137 452.941C183.562 452.676 184.064 452.543 184.643 452.543C185.354 452.543 185.943 452.756 186.412 453.182C186.885 453.607 187.137 454.16 187.168 454.84H186.143C186.111 454.43 185.955 454.094 185.674 453.832C185.396 453.566 185.053 453.434 184.643 453.434C184.092 453.434 183.664 453.633 183.359 454.031C183.059 454.426 182.908 454.998 182.908 455.748V455.953C182.908 456.684 183.059 457.246 183.359 457.641C183.66 458.035 184.09 458.232 184.648 458.232ZM191.018 459.117C190.158 459.117 189.459 458.836 188.92 458.273C188.381 457.707 188.111 456.951 188.111 456.006V455.807C188.111 455.178 188.23 454.617 188.469 454.125C188.711 453.629 189.047 453.242 189.477 452.965C189.91 452.684 190.379 452.543 190.883 452.543C191.707 452.543 192.348 452.814 192.805 453.357C193.262 453.9 193.49 454.678 193.49 455.689V456.141H189.195C189.211 456.766 189.393 457.271 189.74 457.658C190.092 458.041 190.537 458.232 191.076 458.232C191.459 458.232 191.783 458.154 192.049 457.998C192.314 457.842 192.547 457.635 192.746 457.377L193.408 457.893C192.877 458.709 192.08 459.117 191.018 459.117ZM190.883 453.434C190.445 453.434 190.078 453.594 189.781 453.914C189.484 454.23 189.301 454.676 189.23 455.25H192.406V455.168C192.375 454.617 192.227 454.191 191.961 453.891C191.695 453.586 191.336 453.434 190.883 453.434ZM198.441 457.318C198.441 457.025 198.33 456.799 198.107 456.639C197.889 456.475 197.504 456.334 196.953 456.217C196.406 456.1 195.971 455.959 195.646 455.795C195.326 455.631 195.088 455.436 194.932 455.209C194.779 454.982 194.703 454.713 194.703 454.4C194.703 453.881 194.922 453.441 195.359 453.082C195.801 452.723 196.363 452.543 197.047 452.543C197.766 452.543 198.348 452.729 198.793 453.1C199.242 453.471 199.467 453.945 199.467 454.523H198.377C198.377 454.227 198.25 453.971 197.996 453.756C197.746 453.541 197.43 453.434 197.047 453.434C196.652 453.434 196.344 453.52 196.121 453.691C195.898 453.863 195.787 454.088 195.787 454.365C195.787 454.627 195.891 454.824 196.098 454.957C196.305 455.09 196.678 455.217 197.217 455.338C197.76 455.459 198.199 455.604 198.535 455.771C198.871 455.939 199.119 456.143 199.279 456.381C199.443 456.615 199.525 456.902 199.525 457.242C199.525 457.809 199.299 458.264 198.846 458.607C198.393 458.947 197.805 459.117 197.082 459.117C196.574 459.117 196.125 459.027 195.734 458.848C195.344 458.668 195.037 458.418 194.814 458.098C194.596 457.773 194.486 457.424 194.486 457.049H195.57C195.59 457.412 195.734 457.701 196.004 457.916C196.277 458.127 196.637 458.232 197.082 458.232C197.492 458.232 197.82 458.15 198.066 457.986C198.316 457.818 198.441 457.596 198.441 457.318Z" fill="black"/>
<path d="M220.354 389V383.498H219.352V382.66H220.354V382.01C220.354 381.33 220.535 380.805 220.898 380.434C221.262 380.062 221.775 379.877 222.439 379.877C222.689 379.877 222.938 379.91 223.184 379.977L223.125 380.855C222.941 380.82 222.746 380.803 222.539 380.803C222.188 380.803 221.916 380.906 221.725 381.113C221.533 381.316 221.438 381.609 221.438 381.992V382.66H222.791V383.498H221.438V389H220.354ZM227.906 389C227.844 388.875 227.793 388.652 227.754 388.332C227.25 388.855 226.648 389.117 225.949 389.117C225.324 389.117 224.811 388.941 224.408 388.59C224.01 388.234 223.811 387.785 223.811 387.242C223.811 386.582 224.061 386.07 224.561 385.707C225.064 385.34 225.771 385.156 226.682 385.156H227.736V384.658C227.736 384.279 227.623 383.979 227.396 383.756C227.17 383.529 226.836 383.416 226.395 383.416C226.008 383.416 225.684 383.514 225.422 383.709C225.16 383.904 225.029 384.141 225.029 384.418H223.939C223.939 384.102 224.051 383.797 224.273 383.504C224.5 383.207 224.805 382.973 225.188 382.801C225.574 382.629 225.998 382.543 226.459 382.543C227.189 382.543 227.762 382.727 228.176 383.094C228.59 383.457 228.805 383.959 228.82 384.6V387.518C228.82 388.1 228.895 388.562 229.043 388.906V389H227.906ZM226.107 388.174C226.447 388.174 226.77 388.086 227.074 387.91C227.379 387.734 227.6 387.506 227.736 387.225V385.924H226.887C225.559 385.924 224.895 386.312 224.895 387.09C224.895 387.43 225.008 387.695 225.234 387.887C225.461 388.078 225.752 388.174 226.107 388.174ZM231.697 389H230.613V382.66H231.697V389ZM230.525 380.979C230.525 380.803 230.578 380.654 230.684 380.533C230.793 380.412 230.953 380.352 231.164 380.352C231.375 380.352 231.535 380.412 231.645 380.533C231.754 380.654 231.809 380.803 231.809 380.979C231.809 381.154 231.754 381.301 231.645 381.418C231.535 381.535 231.375 381.594 231.164 381.594C230.953 381.594 230.793 381.535 230.684 381.418C230.578 381.301 230.525 381.154 230.525 380.979ZM234.615 389H233.531V380H234.615V389ZM240.27 388.373C239.848 388.869 239.229 389.117 238.412 389.117C237.736 389.117 237.221 388.922 236.865 388.531C236.514 388.137 236.336 387.555 236.332 386.785V382.66H237.416V386.756C237.416 387.717 237.807 388.197 238.588 388.197C239.416 388.197 239.967 387.889 240.24 387.271V382.66H241.324V389H240.293L240.27 388.373ZM246.041 383.633C245.877 383.605 245.699 383.592 245.508 383.592C244.797 383.592 244.314 383.895 244.061 384.5V389H242.977V382.66H244.031L244.049 383.393C244.404 382.826 244.908 382.543 245.561 382.543C245.771 382.543 245.932 382.57 246.041 382.625V383.633ZM249.557 389.117C248.697 389.117 247.998 388.836 247.459 388.273C246.92 387.707 246.65 386.951 246.65 386.006V385.807C246.65 385.178 246.77 384.617 247.008 384.125C247.25 383.629 247.586 383.242 248.016 382.965C248.449 382.684 248.918 382.543 249.422 382.543C250.246 382.543 250.887 382.814 251.344 383.357C251.801 383.9 252.029 384.678 252.029 385.689V386.141H247.734C247.75 386.766 247.932 387.271 248.279 387.658C248.631 388.041 249.076 388.232 249.615 388.232C249.998 388.232 250.322 388.154 250.588 387.998C250.854 387.842 251.086 387.635 251.285 387.377L251.947 387.893C251.416 388.709 250.619 389.117 249.557 389.117ZM249.422 383.434C248.984 383.434 248.617 383.594 248.32 383.914C248.023 384.23 247.84 384.676 247.77 385.25H250.945V385.168C250.914 384.617 250.766 384.191 250.5 383.891C250.234 383.586 249.875 383.434 249.422 383.434ZM256.98 387.318C256.98 387.025 256.869 386.799 256.646 386.639C256.428 386.475 256.043 386.334 255.492 386.217C254.945 386.1 254.51 385.959 254.186 385.795C253.865 385.631 253.627 385.436 253.471 385.209C253.318 384.982 253.242 384.713 253.242 384.4C253.242 383.881 253.461 383.441 253.898 383.082C254.34 382.723 254.902 382.543 255.586 382.543C256.305 382.543 256.887 382.729 257.332 383.1C257.781 383.471 258.006 383.945 258.006 384.523H256.916C256.916 384.227 256.789 383.971 256.535 383.756C256.285 383.541 255.969 383.434 255.586 383.434C255.191 383.434 254.883 383.52 254.66 383.691C254.438 383.863 254.326 384.088 254.326 384.365C254.326 384.627 254.43 384.824 254.637 384.957C254.844 385.09 255.217 385.217 255.756 385.338C256.299 385.459 256.738 385.604 257.074 385.771C257.41 385.939 257.658 386.143 257.818 386.381C257.982 386.615 258.064 386.902 258.064 387.242C258.064 387.809 257.838 388.264 257.385 388.607C256.932 388.947 256.344 389.117 255.621 389.117C255.113 389.117 254.664 389.027 254.273 388.848C253.883 388.668 253.576 388.418 253.354 388.098C253.135 387.773 253.025 387.424 253.025 387.049H254.109C254.129 387.412 254.273 387.701 254.543 387.916C254.816 388.127 255.176 388.232 255.621 388.232C256.031 388.232 256.359 388.15 256.605 387.986C256.855 387.818 256.98 387.596 256.98 387.318Z" fill="black"/>
<path d="M31.5117 317.318C31.5117 317.025 31.4004 316.799 31.1777 316.639C30.959 316.475 30.5742 316.334 30.0234 316.217C29.4766 316.1 29.041 315.959 28.7168 315.795C28.3965 315.631 28.1582 315.436 28.002 315.209C27.8496 314.982 27.7734 314.713 27.7734 314.4C27.7734 313.881 27.9922 313.441 28.4297 313.082C28.8711 312.723 29.4336 312.543 30.1172 312.543C30.8359 312.543 31.418 312.729 31.8633 313.1C32.3125 313.471 32.5371 313.945 32.5371 314.523H31.4473C31.4473 314.227 31.3203 313.971 31.0664 313.756C30.8164 313.541 30.5 313.434 30.1172 313.434C29.7227 313.434 29.4141 313.52 29.1914 313.691C28.9688 313.863 28.8574 314.088 28.8574 314.365C28.8574 314.627 28.9609 314.824 29.168 314.957C29.375 315.09 29.748 315.217 30.2871 315.338C30.8301 315.459 31.2695 315.604 31.6055 315.771C31.9414 315.939 32.1895 316.143 32.3496 316.381C32.5137 316.615 32.5957 316.902 32.5957 317.242C32.5957 317.809 32.3691 318.264 31.916 318.607C31.4629 318.947 30.875 319.117 30.1523 319.117C29.6445 319.117 29.1953 319.027 28.8047 318.848C28.4141 318.668 28.1074 318.418 27.8848 318.098C27.666 317.773 27.5566 317.424 27.5566 317.049H28.6406C28.6602 317.412 28.8047 317.701 29.0742 317.916C29.3477 318.127 29.707 318.232 30.1523 318.232C30.5625 318.232 30.8906 318.15 31.1367 317.986C31.3867 317.818 31.5117 317.596 31.5117 317.318ZM35.1855 319H34.1016V312.66H35.1855V319ZM34.0137 310.979C34.0137 310.803 34.0664 310.654 34.1719 310.533C34.2812 310.412 34.4414 310.352 34.6523 310.352C34.8633 310.352 35.0234 310.412 35.1328 310.533C35.2422 310.654 35.2969 310.803 35.2969 310.979C35.2969 311.154 35.2422 311.301 35.1328 311.418C35.0234 311.535 34.8633 311.594 34.6523 311.594C34.4414 311.594 34.2812 311.535 34.1719 311.418C34.0664 311.301 34.0137 311.154 34.0137 310.979ZM37.9453 312.66L37.9746 313.363C38.4395 312.816 39.0664 312.543 39.8555 312.543C40.7422 312.543 41.3457 312.883 41.666 313.562C41.877 313.258 42.1504 313.012 42.4863 312.824C42.8262 312.637 43.2266 312.543 43.6875 312.543C45.0781 312.543 45.7852 313.279 45.8086 314.752V319H44.7246V314.816C44.7246 314.363 44.6211 314.025 44.4141 313.803C44.207 313.576 43.8594 313.463 43.3711 313.463C42.9688 313.463 42.6348 313.584 42.3691 313.826C42.1035 314.064 41.9492 314.387 41.9062 314.793V319H40.8164V314.846C40.8164 313.924 40.3652 313.463 39.4629 313.463C38.752 313.463 38.2656 313.766 38.0039 314.371V319H36.9199V312.66H37.9453ZM51.3633 318.373C50.9414 318.869 50.3223 319.117 49.5059 319.117C48.8301 319.117 48.3145 318.922 47.959 318.531C47.6074 318.137 47.4297 317.555 47.4258 316.785V312.66H48.5098V316.756C48.5098 317.717 48.9004 318.197 49.6816 318.197C50.5098 318.197 51.0605 317.889 51.334 317.271V312.66H52.418V319H51.3867L51.3633 318.373ZM55.248 319H54.1641V310H55.248V319ZM60.9023 319C60.8398 318.875 60.7891 318.652 60.75 318.332C60.2461 318.855 59.6445 319.117 58.9453 319.117C58.3203 319.117 57.8066 318.941 57.4043 318.59C57.0059 318.234 56.8066 317.785 56.8066 317.242C56.8066 316.582 57.0566 316.07 57.5566 315.707C58.0605 315.34 58.7676 315.156 59.6777 315.156H60.7324V314.658C60.7324 314.279 60.6191 313.979 60.3926 313.756C60.166 313.529 59.832 313.416 59.3906 313.416C59.0039 313.416 58.6797 313.514 58.418 313.709C58.1562 313.904 58.0254 314.141 58.0254 314.418H56.9355C56.9355 314.102 57.0469 313.797 57.2695 313.504C57.4961 313.207 57.8008 312.973 58.1836 312.801C58.5703 312.629 58.9941 312.543 59.4551 312.543C60.1855 312.543 60.7578 312.727 61.1719 313.094C61.5859 313.457 61.8008 313.959 61.8164 314.6V317.518C61.8164 318.1 61.8906 318.562 62.0391 318.906V319H60.9023ZM59.1035 318.174C59.4434 318.174 59.7656 318.086 60.0703 317.91C60.375 317.734 60.5957 317.506 60.7324 317.225V315.924H59.8828C58.5547 315.924 57.8906 316.312 57.8906 317.09C57.8906 317.43 58.0039 317.695 58.2305 317.887C58.457 318.078 58.748 318.174 59.1035 318.174ZM64.9863 311.125V312.66H66.1699V313.498H64.9863V317.43C64.9863 317.684 65.0391 317.875 65.1445 318.004C65.25 318.129 65.4297 318.191 65.6836 318.191C65.8086 318.191 65.9805 318.168 66.1992 318.121V319C65.9141 319.078 65.6367 319.117 65.3672 319.117C64.8828 319.117 64.5176 318.971 64.2715 318.678C64.0254 318.385 63.9023 317.969 63.9023 317.43V313.498H62.748V312.66H63.9023V311.125H64.9863ZM68.6191 319H67.5352V312.66H68.6191V319ZM67.4473 310.979C67.4473 310.803 67.5 310.654 67.6055 310.533C67.7148 310.412 67.875 310.352 68.0859 310.352C68.2969 310.352 68.457 310.412 68.5664 310.533C68.6758 310.654 68.7305 310.803 68.7305 310.979C68.7305 311.154 68.6758 311.301 68.5664 311.418C68.457 311.535 68.2969 311.594 68.0859 311.594C67.875 311.594 67.7148 311.535 67.6055 311.418C67.5 311.301 67.4473 311.154 67.4473 310.979ZM70.0723 315.771C70.0723 315.15 70.1934 314.592 70.4355 314.096C70.6816 313.6 71.0215 313.217 71.4551 312.947C71.8926 312.678 72.3906 312.543 72.9492 312.543C73.8125 312.543 74.5098 312.842 75.041 313.439C75.5762 314.037 75.8438 314.832 75.8438 315.824V315.9C75.8438 316.518 75.7246 317.072 75.4863 317.564C75.252 318.053 74.9141 318.434 74.4727 318.707C74.0352 318.98 73.5312 319.117 72.9609 319.117C72.1016 319.117 71.4043 318.818 70.8691 318.221C70.3379 317.623 70.0723 316.832 70.0723 315.848V315.771ZM71.1621 315.9C71.1621 316.604 71.3242 317.168 71.6484 317.594C71.9766 318.02 72.4141 318.232 72.9609 318.232C73.5117 318.232 73.9492 318.018 74.2734 317.588C74.5977 317.154 74.7598 316.549 74.7598 315.771C74.7598 315.076 74.5938 314.514 74.2617 314.084C73.9336 313.65 73.4961 313.434 72.9492 313.434C72.4141 313.434 71.9824 313.646 71.6543 314.072C71.3262 314.498 71.1621 315.107 71.1621 315.9ZM78.2285 312.66L78.2637 313.457C78.748 312.848 79.3809 312.543 80.1621 312.543C81.502 312.543 82.1777 313.299 82.1895 314.811V319H81.1055V314.805C81.1016 314.348 80.9961 314.01 80.7891 313.791C80.5859 313.572 80.2676 313.463 79.834 313.463C79.4824 313.463 79.1738 313.557 78.9082 313.744C78.6426 313.932 78.4355 314.178 78.2871 314.482V319H77.2031V312.66H78.2285Z" fill="black"/>
<path d="M137.354 312V306.498H136.352V305.66H137.354V305.01C137.354 304.33 137.535 303.805 137.898 303.434C138.262 303.062 138.775 302.877 139.439 302.877C139.689 302.877 139.938 302.91 140.184 302.977L140.125 303.855C139.941 303.82 139.746 303.803 139.539 303.803C139.188 303.803 138.916 303.906 138.725 304.113C138.533 304.316 138.438 304.609 138.438 304.992V305.66H139.791V306.498H138.438V312H137.354ZM144.906 312C144.844 311.875 144.793 311.652 144.754 311.332C144.25 311.855 143.648 312.117 142.949 312.117C142.324 312.117 141.811 311.941 141.408 311.59C141.01 311.234 140.811 310.785 140.811 310.242C140.811 309.582 141.061 309.07 141.561 308.707C142.064 308.34 142.771 308.156 143.682 308.156H144.736V307.658C144.736 307.279 144.623 306.979 144.396 306.756C144.17 306.529 143.836 306.416 143.395 306.416C143.008 306.416 142.684 306.514 142.422 306.709C142.16 306.904 142.029 307.141 142.029 307.418H140.939C140.939 307.102 141.051 306.797 141.273 306.504C141.5 306.207 141.805 305.973 142.188 305.801C142.574 305.629 142.998 305.543 143.459 305.543C144.189 305.543 144.762 305.727 145.176 306.094C145.59 306.457 145.805 306.959 145.82 307.6V310.518C145.82 311.1 145.895 311.562 146.043 311.906V312H144.906ZM143.107 311.174C143.447 311.174 143.77 311.086 144.074 310.91C144.379 310.734 144.6 310.506 144.736 310.225V308.924H143.887C142.559 308.924 141.895 309.312 141.895 310.09C141.895 310.43 142.008 310.695 142.234 310.887C142.461 311.078 142.752 311.174 143.107 311.174ZM148.697 312H147.613V305.66H148.697V312ZM147.525 303.979C147.525 303.803 147.578 303.654 147.684 303.533C147.793 303.412 147.953 303.352 148.164 303.352C148.375 303.352 148.535 303.412 148.645 303.533C148.754 303.654 148.809 303.803 148.809 303.979C148.809 304.154 148.754 304.301 148.645 304.418C148.535 304.535 148.375 304.594 148.164 304.594C147.953 304.594 147.793 304.535 147.684 304.418C147.578 304.301 147.525 304.154 147.525 303.979ZM151.615 312H150.531V303H151.615V312ZM157.27 311.373C156.848 311.869 156.229 312.117 155.412 312.117C154.736 312.117 154.221 311.922 153.865 311.531C153.514 311.137 153.336 310.555 153.332 309.785V305.66H154.416V309.756C154.416 310.717 154.807 311.197 155.588 311.197C156.416 311.197 156.967 310.889 157.24 310.271V305.66H158.324V312H157.293L157.27 311.373ZM163.041 306.633C162.877 306.605 162.699 306.592 162.508 306.592C161.797 306.592 161.314 306.895 161.061 307.5V312H159.977V305.66H161.031L161.049 306.393C161.404 305.826 161.908 305.543 162.561 305.543C162.771 305.543 162.932 305.57 163.041 305.625V306.633ZM166.557 312.117C165.697 312.117 164.998 311.836 164.459 311.273C163.92 310.707 163.65 309.951 163.65 309.006V308.807C163.65 308.178 163.77 307.617 164.008 307.125C164.25 306.629 164.586 306.242 165.016 305.965C165.449 305.684 165.918 305.543 166.422 305.543C167.246 305.543 167.887 305.814 168.344 306.357C168.801 306.9 169.029 307.678 169.029 308.689V309.141H164.734C164.75 309.766 164.932 310.271 165.279 310.658C165.631 311.041 166.076 311.232 166.615 311.232C166.998 311.232 167.322 311.154 167.588 310.998C167.854 310.842 168.086 310.635 168.285 310.377L168.947 310.893C168.416 311.709 167.619 312.117 166.557 312.117ZM166.422 306.434C165.984 306.434 165.617 306.594 165.32 306.914C165.023 307.23 164.84 307.676 164.77 308.25H167.945V308.168C167.914 307.617 167.766 307.191 167.5 306.891C167.234 306.586 166.875 306.434 166.422 306.434ZM138.291 318.125V319.66H139.475V320.498H138.291V324.43C138.291 324.684 138.344 324.875 138.449 325.004C138.555 325.129 138.734 325.191 138.988 325.191C139.113 325.191 139.285 325.168 139.504 325.121V326C139.219 326.078 138.941 326.117 138.672 326.117C138.188 326.117 137.822 325.971 137.576 325.678C137.33 325.385 137.207 324.969 137.207 324.43V320.498H136.053V319.66H137.207V318.125H138.291ZM143.811 320.633C143.646 320.605 143.469 320.592 143.277 320.592C142.566 320.592 142.084 320.895 141.83 321.5V326H140.746V319.66H141.801L141.818 320.393C142.174 319.826 142.678 319.543 143.33 319.543C143.541 319.543 143.701 319.57 143.811 319.625V320.633ZM148.492 326C148.43 325.875 148.379 325.652 148.34 325.332C147.836 325.855 147.234 326.117 146.535 326.117C145.91 326.117 145.396 325.941 144.994 325.59C144.596 325.234 144.396 324.785 144.396 324.242C144.396 323.582 144.646 323.07 145.146 322.707C145.65 322.34 146.357 322.156 147.268 322.156H148.322V321.658C148.322 321.279 148.209 320.979 147.982 320.756C147.756 320.529 147.422 320.416 146.98 320.416C146.594 320.416 146.27 320.514 146.008 320.709C145.746 320.904 145.615 321.141 145.615 321.418H144.525C144.525 321.102 144.637 320.797 144.859 320.504C145.086 320.207 145.391 319.973 145.773 319.801C146.16 319.629 146.584 319.543 147.045 319.543C147.775 319.543 148.348 319.727 148.762 320.094C149.176 320.457 149.391 320.959 149.406 321.6V324.518C149.406 325.1 149.48 325.562 149.629 325.906V326H148.492ZM146.693 325.174C147.033 325.174 147.355 325.086 147.66 324.91C147.965 324.734 148.186 324.506 148.322 324.225V322.924H147.473C146.145 322.924 145.48 323.312 145.48 324.09C145.48 324.43 145.594 324.695 145.82 324.887C146.047 325.078 146.338 325.174 146.693 325.174ZM153.648 325.232C154.035 325.232 154.373 325.115 154.662 324.881C154.951 324.646 155.111 324.354 155.143 324.002H156.168C156.148 324.365 156.023 324.711 155.793 325.039C155.562 325.367 155.254 325.629 154.867 325.824C154.484 326.02 154.078 326.117 153.648 326.117C152.785 326.117 152.098 325.83 151.586 325.256C151.078 324.678 150.824 323.889 150.824 322.889V322.707C150.824 322.09 150.938 321.541 151.164 321.061C151.391 320.58 151.715 320.207 152.137 319.941C152.562 319.676 153.064 319.543 153.643 319.543C154.354 319.543 154.943 319.756 155.412 320.182C155.885 320.607 156.137 321.16 156.168 321.84H155.143C155.111 321.43 154.955 321.094 154.674 320.832C154.396 320.566 154.053 320.434 153.643 320.434C153.092 320.434 152.664 320.633 152.359 321.031C152.059 321.426 151.908 321.998 151.908 322.748V322.953C151.908 323.684 152.059 324.246 152.359 324.641C152.66 325.035 153.09 325.232 153.648 325.232ZM160.018 326.117C159.158 326.117 158.459 325.836 157.92 325.273C157.381 324.707 157.111 323.951 157.111 323.006V322.807C157.111 322.178 157.23 321.617 157.469 321.125C157.711 320.629 158.047 320.242 158.477 319.965C158.91 319.684 159.379 319.543 159.883 319.543C160.707 319.543 161.348 319.814 161.805 320.357C162.262 320.9 162.49 321.678 162.49 322.689V323.141H158.195C158.211 323.766 158.393 324.271 158.74 324.658C159.092 325.041 159.537 325.232 160.076 325.232C160.459 325.232 160.783 325.154 161.049 324.998C161.314 324.842 161.547 324.635 161.746 324.377L162.408 324.893C161.877 325.709 161.08 326.117 160.018 326.117ZM159.883 320.434C159.445 320.434 159.078 320.594 158.781 320.914C158.484 321.23 158.301 321.676 158.23 322.25H161.406V322.168C161.375 321.617 161.227 321.191 160.961 320.891C160.695 320.586 160.336 320.434 159.883 320.434ZM167.441 324.318C167.441 324.025 167.33 323.799 167.107 323.639C166.889 323.475 166.504 323.334 165.953 323.217C165.406 323.1 164.971 322.959 164.646 322.795C164.326 322.631 164.088 322.436 163.932 322.209C163.779 321.982 163.703 321.713 163.703 321.4C163.703 320.881 163.922 320.441 164.359 320.082C164.801 319.723 165.363 319.543 166.047 319.543C166.766 319.543 167.348 319.729 167.793 320.1C168.242 320.471 168.467 320.945 168.467 321.523H167.377C167.377 321.227 167.25 320.971 166.996 320.756C166.746 320.541 166.43 320.434 166.047 320.434C165.652 320.434 165.344 320.52 165.121 320.691C164.898 320.863 164.787 321.088 164.787 321.365C164.787 321.627 164.891 321.824 165.098 321.957C165.305 322.09 165.678 322.217 166.217 322.338C166.76 322.459 167.199 322.604 167.535 322.771C167.871 322.939 168.119 323.143 168.279 323.381C168.443 323.615 168.525 323.902 168.525 324.242C168.525 324.809 168.299 325.264 167.846 325.607C167.393 325.947 166.805 326.117 166.082 326.117C165.574 326.117 165.125 326.027 164.734 325.848C164.344 325.668 164.037 325.418 163.814 325.098C163.596 324.773 163.486 324.424 163.486 324.049H164.57C164.59 324.412 164.734 324.701 165.004 324.916C165.277 325.127 165.637 325.232 166.082 325.232C166.492 325.232 166.82 325.15 167.066 324.986C167.316 324.818 167.441 324.596 167.441 324.318Z" fill="black"/>
<path d="M222.885 313.633C222.721 313.605 222.543 313.592 222.352 313.592C221.641 313.592 221.158 313.895 220.904 314.5V319H219.82V312.66H220.875L220.893 313.393C221.248 312.826 221.752 312.543 222.404 312.543C222.615 312.543 222.775 312.57 222.885 312.625V313.633ZM226.4 319.117C225.541 319.117 224.842 318.836 224.303 318.273C223.764 317.707 223.494 316.951 223.494 316.006V315.807C223.494 315.178 223.613 314.617 223.852 314.125C224.094 313.629 224.43 313.242 224.859 312.965C225.293 312.684 225.762 312.543 226.266 312.543C227.09 312.543 227.73 312.814 228.188 313.357C228.645 313.9 228.873 314.678 228.873 315.689V316.141H224.578C224.594 316.766 224.775 317.271 225.123 317.658C225.475 318.041 225.92 318.232 226.459 318.232C226.842 318.232 227.166 318.154 227.432 317.998C227.697 317.842 227.93 317.635 228.129 317.377L228.791 317.893C228.26 318.709 227.463 319.117 226.4 319.117ZM226.266 313.434C225.828 313.434 225.461 313.594 225.164 313.914C224.867 314.23 224.684 314.676 224.613 315.25H227.789V315.168C227.758 314.617 227.609 314.191 227.344 313.891C227.078 313.586 226.719 313.434 226.266 313.434ZM234.047 319C233.984 318.875 233.934 318.652 233.895 318.332C233.391 318.855 232.789 319.117 232.09 319.117C231.465 319.117 230.951 318.941 230.549 318.59C230.15 318.234 229.951 317.785 229.951 317.242C229.951 316.582 230.201 316.07 230.701 315.707C231.205 315.34 231.912 315.156 232.822 315.156H233.877V314.658C233.877 314.279 233.764 313.979 233.537 313.756C233.311 313.529 232.977 313.416 232.535 313.416C232.148 313.416 231.824 313.514 231.562 313.709C231.301 313.904 231.17 314.141 231.17 314.418H230.08C230.08 314.102 230.191 313.797 230.414 313.504C230.641 313.207 230.945 312.973 231.328 312.801C231.715 312.629 232.139 312.543 232.6 312.543C233.33 312.543 233.902 312.727 234.316 313.094C234.73 313.457 234.945 313.959 234.961 314.6V317.518C234.961 318.1 235.035 318.562 235.184 318.906V319H234.047ZM232.248 318.174C232.588 318.174 232.91 318.086 233.215 317.91C233.52 317.734 233.74 317.506 233.877 317.225V315.924H233.027C231.699 315.924 231.035 316.312 231.035 317.09C231.035 317.43 231.148 317.695 231.375 317.887C231.602 318.078 231.893 318.174 232.248 318.174ZM236.396 315.777C236.396 314.805 236.627 314.023 237.088 313.434C237.549 312.84 238.152 312.543 238.898 312.543C239.641 312.543 240.229 312.797 240.662 313.305V310H241.746V319H240.75L240.697 318.32C240.264 318.852 239.66 319.117 238.887 319.117C238.152 319.117 237.553 318.816 237.088 318.215C236.627 317.613 236.396 316.828 236.396 315.859V315.777ZM237.48 315.9C237.48 316.619 237.629 317.182 237.926 317.588C238.223 317.994 238.633 318.197 239.156 318.197C239.844 318.197 240.346 317.889 240.662 317.271V314.359C240.338 313.762 239.84 313.463 239.168 313.463C238.637 313.463 238.223 313.668 237.926 314.078C237.629 314.488 237.48 315.096 237.48 315.9ZM244.611 319H243.527V312.66H244.611V319ZM243.439 310.979C243.439 310.803 243.492 310.654 243.598 310.533C243.707 310.412 243.867 310.352 244.078 310.352C244.289 310.352 244.449 310.412 244.559 310.533C244.668 310.654 244.723 310.803 244.723 310.979C244.723 311.154 244.668 311.301 244.559 311.418C244.449 311.535 244.289 311.594 244.078 311.594C243.867 311.594 243.707 311.535 243.598 311.418C243.492 311.301 243.439 311.154 243.439 310.979ZM248.982 319.117C248.123 319.117 247.424 318.836 246.885 318.273C246.346 317.707 246.076 316.951 246.076 316.006V315.807C246.076 315.178 246.195 314.617 246.434 314.125C246.676 313.629 247.012 313.242 247.441 312.965C247.875 312.684 248.344 312.543 248.848 312.543C249.672 312.543 250.312 312.814 250.77 313.357C251.227 313.9 251.455 314.678 251.455 315.689V316.141H247.16C247.176 316.766 247.357 317.271 247.705 317.658C248.057 318.041 248.502 318.232 249.041 318.232C249.424 318.232 249.748 318.154 250.014 317.998C250.279 317.842 250.512 317.635 250.711 317.377L251.373 317.893C250.842 318.709 250.045 319.117 248.982 319.117ZM248.848 313.434C248.41 313.434 248.043 313.594 247.746 313.914C247.449 314.23 247.266 314.676 247.195 315.25H250.371V315.168C250.34 314.617 250.191 314.191 249.926 313.891C249.66 313.586 249.301 313.434 248.848 313.434ZM256.406 317.318C256.406 317.025 256.295 316.799 256.072 316.639C255.854 316.475 255.469 316.334 254.918 316.217C254.371 316.1 253.936 315.959 253.611 315.795C253.291 315.631 253.053 315.436 252.896 315.209C252.744 314.982 252.668 314.713 252.668 314.4C252.668 313.881 252.887 313.441 253.324 313.082C253.766 312.723 254.328 312.543 255.012 312.543C255.73 312.543 256.312 312.729 256.758 313.1C257.207 313.471 257.432 313.945 257.432 314.523H256.342C256.342 314.227 256.215 313.971 255.961 313.756C255.711 313.541 255.395 313.434 255.012 313.434C254.617 313.434 254.309 313.52 254.086 313.691C253.863 313.863 253.752 314.088 253.752 314.365C253.752 314.627 253.855 314.824 254.062 314.957C254.27 315.09 254.643 315.217 255.182 315.338C255.725 315.459 256.164 315.604 256.5 315.771C256.836 315.939 257.084 316.143 257.244 316.381C257.408 316.615 257.49 316.902 257.49 317.242C257.49 317.809 257.264 318.264 256.811 318.607C256.357 318.947 255.77 319.117 255.047 319.117C254.539 319.117 254.09 319.027 253.699 318.848C253.309 318.668 253.002 318.418 252.779 318.098C252.561 317.773 252.451 317.424 252.451 317.049H253.535C253.555 317.412 253.699 317.701 253.969 317.916C254.242 318.127 254.602 318.232 255.047 318.232C255.457 318.232 255.785 318.15 256.031 317.986C256.281 317.818 256.406 317.596 256.406 317.318Z" fill="black"/>
<path d="M297.998 312H296.914V305.66H297.998V312ZM296.826 303.979C296.826 303.803 296.879 303.654 296.984 303.533C297.094 303.412 297.254 303.352 297.465 303.352C297.676 303.352 297.836 303.412 297.945 303.533C298.055 303.654 298.109 303.803 298.109 303.979C298.109 304.154 298.055 304.301 297.945 304.418C297.836 304.535 297.676 304.594 297.465 304.594C297.254 304.594 297.094 304.535 296.984 304.418C296.879 304.301 296.826 304.154 296.826 303.979ZM300.758 305.66L300.787 306.363C301.252 305.816 301.879 305.543 302.668 305.543C303.555 305.543 304.158 305.883 304.479 306.562C304.689 306.258 304.963 306.012 305.299 305.824C305.639 305.637 306.039 305.543 306.5 305.543C307.891 305.543 308.598 306.279 308.621 307.752V312H307.537V307.816C307.537 307.363 307.434 307.025 307.227 306.803C307.02 306.576 306.672 306.463 306.184 306.463C305.781 306.463 305.447 306.584 305.182 306.826C304.916 307.064 304.762 307.387 304.719 307.793V312H303.629V307.846C303.629 306.924 303.178 306.463 302.275 306.463C301.564 306.463 301.078 306.766 300.816 307.371V312H299.732V305.66H300.758ZM315.617 308.9C315.617 309.865 315.396 310.643 314.955 311.232C314.514 311.822 313.916 312.117 313.162 312.117C312.393 312.117 311.787 311.873 311.346 311.385V314.438H310.262V305.66H311.252L311.305 306.363C311.746 305.816 312.359 305.543 313.145 305.543C313.906 305.543 314.508 305.83 314.949 306.404C315.395 306.979 315.617 307.777 315.617 308.801V308.9ZM314.533 308.777C314.533 308.062 314.381 307.498 314.076 307.084C313.771 306.67 313.354 306.463 312.822 306.463C312.166 306.463 311.674 306.754 311.346 307.336V310.365C311.67 310.943 312.166 311.232 312.834 311.232C313.354 311.232 313.766 311.027 314.07 310.617C314.379 310.203 314.533 309.59 314.533 308.777ZM316.713 308.771C316.713 308.15 316.834 307.592 317.076 307.096C317.322 306.6 317.662 306.217 318.096 305.947C318.533 305.678 319.031 305.543 319.59 305.543C320.453 305.543 321.15 305.842 321.682 306.439C322.217 307.037 322.484 307.832 322.484 308.824V308.9C322.484 309.518 322.365 310.072 322.127 310.564C321.893 311.053 321.555 311.434 321.113 311.707C320.676 311.98 320.172 312.117 319.602 312.117C318.742 312.117 318.045 311.818 317.51 311.221C316.979 310.623 316.713 309.832 316.713 308.848V308.771ZM317.803 308.9C317.803 309.604 317.965 310.168 318.289 310.594C318.617 311.02 319.055 311.232 319.602 311.232C320.152 311.232 320.59 311.018 320.914 310.588C321.238 310.154 321.4 309.549 321.4 308.771C321.4 308.076 321.234 307.514 320.902 307.084C320.574 306.65 320.137 306.434 319.59 306.434C319.055 306.434 318.623 306.646 318.295 307.072C317.967 307.498 317.803 308.107 317.803 308.9ZM327.535 310.318C327.535 310.025 327.424 309.799 327.201 309.639C326.982 309.475 326.598 309.334 326.047 309.217C325.5 309.1 325.064 308.959 324.74 308.795C324.42 308.631 324.182 308.436 324.025 308.209C323.873 307.982 323.797 307.713 323.797 307.4C323.797 306.881 324.016 306.441 324.453 306.082C324.895 305.723 325.457 305.543 326.141 305.543C326.859 305.543 327.441 305.729 327.887 306.1C328.336 306.471 328.561 306.945 328.561 307.523H327.471C327.471 307.227 327.344 306.971 327.09 306.756C326.84 306.541 326.523 306.434 326.141 306.434C325.746 306.434 325.438 306.52 325.215 306.691C324.992 306.863 324.881 307.088 324.881 307.365C324.881 307.627 324.984 307.824 325.191 307.957C325.398 308.09 325.771 308.217 326.311 308.338C326.854 308.459 327.293 308.604 327.629 308.771C327.965 308.939 328.213 309.143 328.373 309.381C328.537 309.615 328.619 309.902 328.619 310.242C328.619 310.809 328.393 311.264 327.939 311.607C327.486 311.947 326.898 312.117 326.176 312.117C325.668 312.117 325.219 312.027 324.828 311.848C324.438 311.668 324.131 311.418 323.908 311.098C323.689 310.773 323.58 310.424 323.58 310.049H324.664C324.684 310.412 324.828 310.701 325.098 310.916C325.371 311.127 325.73 311.232 326.176 311.232C326.586 311.232 326.914 311.15 327.16 310.986C327.41 310.818 327.535 310.596 327.535 310.318ZM333.723 310.318C333.723 310.025 333.611 309.799 333.389 309.639C333.17 309.475 332.785 309.334 332.234 309.217C331.688 309.1 331.252 308.959 330.928 308.795C330.607 308.631 330.369 308.436 330.213 308.209C330.061 307.982 329.984 307.713 329.984 307.4C329.984 306.881 330.203 306.441 330.641 306.082C331.082 305.723 331.645 305.543 332.328 305.543C333.047 305.543 333.629 305.729 334.074 306.1C334.523 306.471 334.748 306.945 334.748 307.523H333.658C333.658 307.227 333.531 306.971 333.277 306.756C333.027 306.541 332.711 306.434 332.328 306.434C331.934 306.434 331.625 306.52 331.402 306.691C331.18 306.863 331.068 307.088 331.068 307.365C331.068 307.627 331.172 307.824 331.379 307.957C331.586 308.09 331.959 308.217 332.498 308.338C333.041 308.459 333.48 308.604 333.816 308.771C334.152 308.939 334.4 309.143 334.561 309.381C334.725 309.615 334.807 309.902 334.807 310.242C334.807 310.809 334.58 311.264 334.127 311.607C333.674 311.947 333.086 312.117 332.363 312.117C331.855 312.117 331.406 312.027 331.016 311.848C330.625 311.668 330.318 311.418 330.096 311.098C329.877 310.773 329.768 310.424 329.768 310.049H330.852C330.871 310.412 331.016 310.701 331.285 310.916C331.559 311.127 331.918 311.232 332.363 311.232C332.773 311.232 333.102 311.15 333.348 310.986C333.598 310.818 333.723 310.596 333.723 310.318ZM337.396 312H336.312V305.66H337.396V312ZM336.225 303.979C336.225 303.803 336.277 303.654 336.383 303.533C336.492 303.412 336.652 303.352 336.863 303.352C337.074 303.352 337.234 303.412 337.344 303.533C337.453 303.654 337.508 303.803 337.508 303.979C337.508 304.154 337.453 304.301 337.344 304.418C337.234 304.535 337.074 304.594 336.863 304.594C336.652 304.594 336.492 304.535 336.383 304.418C336.277 304.301 336.225 304.154 336.225 303.979ZM344.504 308.9C344.504 309.869 344.281 310.648 343.836 311.238C343.391 311.824 342.793 312.117 342.043 312.117C341.242 312.117 340.623 311.834 340.186 311.268L340.133 312H339.137V303H340.221V306.357C340.658 305.814 341.262 305.543 342.031 305.543C342.801 305.543 343.404 305.834 343.842 306.416C344.283 306.998 344.504 307.795 344.504 308.807V308.9ZM343.42 308.777C343.42 308.039 343.277 307.469 342.992 307.066C342.707 306.664 342.297 306.463 341.762 306.463C341.047 306.463 340.533 306.795 340.221 307.459V310.201C340.553 310.865 341.07 311.197 341.773 311.197C342.293 311.197 342.697 310.996 342.986 310.594C343.275 310.191 343.42 309.586 343.42 308.777ZM347.053 312H345.969V303H347.053V312ZM351.424 312.117C350.564 312.117 349.865 311.836 349.326 311.273C348.787 310.707 348.518 309.951 348.518 309.006V308.807C348.518 308.178 348.637 307.617 348.875 307.125C349.117 306.629 349.453 306.242 349.883 305.965C350.316 305.684 350.785 305.543 351.289 305.543C352.113 305.543 352.754 305.814 353.211 306.357C353.668 306.9 353.896 307.678 353.896 308.689V309.141H349.602C349.617 309.766 349.799 310.271 350.146 310.658C350.498 311.041 350.943 311.232 351.482 311.232C351.865 311.232 352.189 311.154 352.455 310.998C352.721 310.842 352.953 310.635 353.152 310.377L353.814 310.893C353.283 311.709 352.486 312.117 351.424 312.117ZM351.289 306.434C350.852 306.434 350.484 306.594 350.188 306.914C349.891 307.23 349.707 307.676 349.637 308.25H352.812V308.168C352.781 307.617 352.633 307.191 352.367 306.891C352.102 306.586 351.742 306.434 351.289 306.434ZM297.354 326V320.498H296.352V319.66H297.354V319.01C297.354 318.33 297.535 317.805 297.898 317.434C298.262 317.062 298.775 316.877 299.439 316.877C299.689 316.877 299.938 316.91 300.184 316.977L300.125 317.855C299.941 317.82 299.746 317.803 299.539 317.803C299.188 317.803 298.916 317.906 298.725 318.113C298.533 318.316 298.438 318.609 298.438 318.992V319.66H299.791V320.498H298.438V326H297.354ZM304.906 325.373C304.484 325.869 303.865 326.117 303.049 326.117C302.373 326.117 301.857 325.922 301.502 325.531C301.15 325.137 300.973 324.555 300.969 323.785V319.66H302.053V323.756C302.053 324.717 302.443 325.197 303.225 325.197C304.053 325.197 304.604 324.889 304.877 324.271V319.66H305.961V326H304.93L304.906 325.373ZM309.084 318.125V319.66H310.268V320.498H309.084V324.43C309.084 324.684 309.137 324.875 309.242 325.004C309.348 325.129 309.527 325.191 309.781 325.191C309.906 325.191 310.078 325.168 310.297 325.121V326C310.012 326.078 309.734 326.117 309.465 326.117C308.98 326.117 308.615 325.971 308.369 325.678C308.123 325.385 308 324.969 308 324.43V320.498H306.846V319.66H308V318.125H309.084ZM315.453 325.373C315.031 325.869 314.412 326.117 313.596 326.117C312.92 326.117 312.404 325.922 312.049 325.531C311.697 325.137 311.52 324.555 311.516 323.785V319.66H312.6V323.756C312.6 324.717 312.99 325.197 313.771 325.197C314.6 325.197 315.15 324.889 315.424 324.271V319.66H316.508V326H315.477L315.453 325.373ZM321.225 320.633C321.061 320.605 320.883 320.592 320.691 320.592C319.98 320.592 319.498 320.895 319.244 321.5V326H318.16V319.66H319.215L319.232 320.393C319.588 319.826 320.092 319.543 320.744 319.543C320.955 319.543 321.115 319.57 321.225 319.625V320.633ZM324.74 326.117C323.881 326.117 323.182 325.836 322.643 325.273C322.104 324.707 321.834 323.951 321.834 323.006V322.807C321.834 322.178 321.953 321.617 322.191 321.125C322.434 320.629 322.77 320.242 323.199 319.965C323.633 319.684 324.102 319.543 324.605 319.543C325.43 319.543 326.07 319.814 326.527 320.357C326.984 320.9 327.213 321.678 327.213 322.689V323.141H322.918C322.934 323.766 323.115 324.271 323.463 324.658C323.814 325.041 324.26 325.232 324.799 325.232C325.182 325.232 325.506 325.154 325.771 324.998C326.037 324.842 326.27 324.635 326.469 324.377L327.131 324.893C326.6 325.709 325.803 326.117 324.74 326.117ZM324.605 320.434C324.168 320.434 323.801 320.594 323.504 320.914C323.207 321.23 323.023 321.676 322.953 322.25H326.129V322.168C326.098 321.617 325.949 321.191 325.684 320.891C325.418 320.586 325.059 320.434 324.605 320.434ZM332.164 324.318C332.164 324.025 332.053 323.799 331.83 323.639C331.611 323.475 331.227 323.334 330.676 323.217C330.129 323.1 329.693 322.959 329.369 322.795C329.049 322.631 328.811 322.436 328.654 322.209C328.502 321.982 328.426 321.713 328.426 321.4C328.426 320.881 328.645 320.441 329.082 320.082C329.523 319.723 330.086 319.543 330.77 319.543C331.488 319.543 332.07 319.729 332.516 320.1C332.965 320.471 333.189 320.945 333.189 321.523H332.1C332.1 321.227 331.973 320.971 331.719 320.756C331.469 320.541 331.152 320.434 330.77 320.434C330.375 320.434 330.066 320.52 329.844 320.691C329.621 320.863 329.51 321.088 329.51 321.365C329.51 321.627 329.613 321.824 329.82 321.957C330.027 322.09 330.4 322.217 330.939 322.338C331.482 322.459 331.922 322.604 332.258 322.771C332.594 322.939 332.842 323.143 333.002 323.381C333.166 323.615 333.248 323.902 333.248 324.242C333.248 324.809 333.021 325.264 332.568 325.607C332.115 325.947 331.527 326.117 330.805 326.117C330.297 326.117 329.848 326.027 329.457 325.848C329.066 325.668 328.76 325.418 328.537 325.098C328.318 324.773 328.209 324.424 328.209 324.049H329.293C329.312 324.412 329.457 324.701 329.727 324.916C330 325.127 330.359 325.232 330.805 325.232C331.215 325.232 331.543 325.15 331.789 324.986C332.039 324.818 332.164 324.596 332.164 324.318Z" fill="black"/>
<path d="M145.885 244.633C145.721 244.605 145.543 244.592 145.352 244.592C144.641 244.592 144.158 244.895 143.904 245.5V250H142.82V243.66H143.875L143.893 244.393C144.248 243.826 144.752 243.543 145.404 243.543C145.615 243.543 145.775 243.57 145.885 243.625V244.633ZM149.4 250.117C148.541 250.117 147.842 249.836 147.303 249.273C146.764 248.707 146.494 247.951 146.494 247.006V246.807C146.494 246.178 146.613 245.617 146.852 245.125C147.094 244.629 147.43 244.242 147.859 243.965C148.293 243.684 148.762 243.543 149.266 243.543C150.09 243.543 150.73 243.814 151.188 244.357C151.645 244.9 151.873 245.678 151.873 246.689V247.141H147.578C147.594 247.766 147.775 248.271 148.123 248.658C148.475 249.041 148.92 249.232 149.459 249.232C149.842 249.232 150.166 249.154 150.432 248.998C150.697 248.842 150.93 248.635 151.129 248.377L151.791 248.893C151.26 249.709 150.463 250.117 149.4 250.117ZM149.266 244.434C148.828 244.434 148.461 244.594 148.164 244.914C147.867 245.23 147.684 245.676 147.613 246.25H150.789V246.168C150.758 245.617 150.609 245.191 150.344 244.891C150.078 244.586 149.719 244.434 149.266 244.434ZM157.047 250C156.984 249.875 156.934 249.652 156.895 249.332C156.391 249.855 155.789 250.117 155.09 250.117C154.465 250.117 153.951 249.941 153.549 249.59C153.15 249.234 152.951 248.785 152.951 248.242C152.951 247.582 153.201 247.07 153.701 246.707C154.205 246.34 154.912 246.156 155.822 246.156H156.877V245.658C156.877 245.279 156.764 244.979 156.537 244.756C156.311 244.529 155.977 244.416 155.535 244.416C155.148 244.416 154.824 244.514 154.562 244.709C154.301 244.904 154.17 245.141 154.17 245.418H153.08C153.08 245.102 153.191 244.797 153.414 244.504C153.641 244.207 153.945 243.973 154.328 243.801C154.715 243.629 155.139 243.543 155.6 243.543C156.33 243.543 156.902 243.727 157.316 244.094C157.73 244.457 157.945 244.959 157.961 245.6V248.518C157.961 249.1 158.035 249.562 158.184 249.906V250H157.047ZM155.248 249.174C155.588 249.174 155.91 249.086 156.215 248.91C156.52 248.734 156.74 248.506 156.877 248.225V246.924H156.027C154.699 246.924 154.035 247.312 154.035 248.09C154.035 248.43 154.148 248.695 154.375 248.887C154.602 249.078 154.893 249.174 155.248 249.174ZM159.396 246.777C159.396 245.805 159.627 245.023 160.088 244.434C160.549 243.84 161.152 243.543 161.898 243.543C162.641 243.543 163.229 243.797 163.662 244.305V241H164.746V250H163.75L163.697 249.32C163.264 249.852 162.66 250.117 161.887 250.117C161.152 250.117 160.553 249.816 160.088 249.215C159.627 248.613 159.396 247.828 159.396 246.859V246.777ZM160.48 246.9C160.48 247.619 160.629 248.182 160.926 248.588C161.223 248.994 161.633 249.197 162.156 249.197C162.844 249.197 163.346 248.889 163.662 248.271V245.359C163.338 244.762 162.84 244.463 162.168 244.463C161.637 244.463 161.223 244.668 160.926 245.078C160.629 245.488 160.48 246.096 160.48 246.9ZM168.508 248.412L169.984 243.66H171.145L168.596 250.979C168.201 252.033 167.574 252.561 166.715 252.561L166.51 252.543L166.105 252.467V251.588L166.398 251.611C166.766 251.611 167.051 251.537 167.254 251.389C167.461 251.24 167.631 250.969 167.764 250.574L168.004 249.93L165.742 243.66H166.926L168.508 248.412ZM176.564 242.125V243.66H177.748V244.498H176.564V248.43C176.564 248.684 176.617 248.875 176.723 249.004C176.828 249.129 177.008 249.191 177.262 249.191C177.387 249.191 177.559 249.168 177.777 249.121V250C177.492 250.078 177.215 250.117 176.945 250.117C176.461 250.117 176.096 249.971 175.85 249.678C175.604 249.385 175.48 248.969 175.48 248.43V244.498H174.326V243.66H175.48V242.125H176.564ZM182.084 244.633C181.92 244.605 181.742 244.592 181.551 244.592C180.84 244.592 180.357 244.895 180.104 245.5V250H179.02V243.66H180.074L180.092 244.393C180.447 243.826 180.951 243.543 181.604 243.543C181.814 243.543 181.975 243.57 182.084 243.625V244.633ZM186.766 250C186.703 249.875 186.652 249.652 186.613 249.332C186.109 249.855 185.508 250.117 184.809 250.117C184.184 250.117 183.67 249.941 183.268 249.59C182.869 249.234 182.67 248.785 182.67 248.242C182.67 247.582 182.92 247.07 183.42 246.707C183.924 246.34 184.631 246.156 185.541 246.156H186.596V245.658C186.596 245.279 186.482 244.979 186.256 244.756C186.029 244.529 185.695 244.416 185.254 244.416C184.867 244.416 184.543 244.514 184.281 244.709C184.02 244.904 183.889 245.141 183.889 245.418H182.799C182.799 245.102 182.91 244.797 183.133 244.504C183.359 244.207 183.664 243.973 184.047 243.801C184.434 243.629 184.857 243.543 185.318 243.543C186.049 243.543 186.621 243.727 187.035 244.094C187.449 244.457 187.664 244.959 187.68 245.6V248.518C187.68 249.1 187.754 249.562 187.902 249.906V250H186.766ZM184.967 249.174C185.307 249.174 185.629 249.086 185.934 248.91C186.238 248.734 186.459 248.506 186.596 248.225V246.924H185.746C184.418 246.924 183.754 247.312 183.754 248.09C183.754 248.43 183.867 248.695 184.094 248.887C184.32 249.078 184.611 249.174 184.967 249.174ZM191.922 249.232C192.309 249.232 192.646 249.115 192.936 248.881C193.225 248.646 193.385 248.354 193.416 248.002H194.441C194.422 248.365 194.297 248.711 194.066 249.039C193.836 249.367 193.527 249.629 193.141 249.824C192.758 250.02 192.352 250.117 191.922 250.117C191.059 250.117 190.371 249.83 189.859 249.256C189.352 248.678 189.098 247.889 189.098 246.889V246.707C189.098 246.09 189.211 245.541 189.438 245.061C189.664 244.58 189.988 244.207 190.41 243.941C190.836 243.676 191.338 243.543 191.916 243.543C192.627 243.543 193.217 243.756 193.686 244.182C194.158 244.607 194.41 245.16 194.441 245.84H193.416C193.385 245.43 193.229 245.094 192.947 244.832C192.67 244.566 192.326 244.434 191.916 244.434C191.365 244.434 190.938 244.633 190.633 245.031C190.332 245.426 190.182 245.998 190.182 246.748V246.953C190.182 247.684 190.332 248.246 190.633 248.641C190.934 249.035 191.363 249.232 191.922 249.232ZM198.291 250.117C197.432 250.117 196.732 249.836 196.193 249.273C195.654 248.707 195.385 247.951 195.385 247.006V246.807C195.385 246.178 195.504 245.617 195.742 245.125C195.984 244.629 196.32 244.242 196.75 243.965C197.184 243.684 197.652 243.543 198.156 243.543C198.98 243.543 199.621 243.814 200.078 244.357C200.535 244.9 200.764 245.678 200.764 246.689V247.141H196.469C196.484 247.766 196.666 248.271 197.014 248.658C197.365 249.041 197.811 249.232 198.35 249.232C198.732 249.232 199.057 249.154 199.322 248.998C199.588 248.842 199.82 248.635 200.02 248.377L200.682 248.893C200.15 249.709 199.354 250.117 198.291 250.117ZM198.156 244.434C197.719 244.434 197.352 244.594 197.055 244.914C196.758 245.23 196.574 245.676 196.504 246.25H199.68V246.168C199.648 245.617 199.5 245.191 199.234 244.891C198.969 244.586 198.609 244.434 198.156 244.434ZM205.715 248.318C205.715 248.025 205.604 247.799 205.381 247.639C205.162 247.475 204.777 247.334 204.227 247.217C203.68 247.1 203.244 246.959 202.92 246.795C202.6 246.631 202.361 246.436 202.205 246.209C202.053 245.982 201.977 245.713 201.977 245.4C201.977 244.881 202.195 244.441 202.633 244.082C203.074 243.723 203.637 243.543 204.32 243.543C205.039 243.543 205.621 243.729 206.066 244.1C206.516 244.471 206.74 244.945 206.74 245.523H205.65C205.65 245.227 205.523 244.971 205.27 244.756C205.02 244.541 204.703 244.434 204.32 244.434C203.926 244.434 203.617 244.52 203.395 244.691C203.172 244.863 203.061 245.088 203.061 245.365C203.061 245.627 203.164 245.824 203.371 245.957C203.578 246.09 203.951 246.217 204.49 246.338C205.033 246.459 205.473 246.604 205.809 246.771C206.145 246.939 206.393 247.143 206.553 247.381C206.717 247.615 206.799 247.902 206.799 248.242C206.799 248.809 206.572 249.264 206.119 249.607C205.666 249.947 205.078 250.117 204.355 250.117C203.848 250.117 203.398 250.027 203.008 249.848C202.617 249.668 202.311 249.418 202.088 249.098C201.869 248.773 201.76 248.424 201.76 248.049H202.844C202.863 248.412 203.008 248.701 203.277 248.916C203.551 249.127 203.91 249.232 204.355 249.232C204.766 249.232 205.094 249.15 205.34 248.986C205.59 248.818 205.715 248.596 205.715 248.318Z" fill="black"/>
<path d="M266.176 246.9C266.176 247.865 265.955 248.643 265.514 249.232C265.072 249.822 264.475 250.117 263.721 250.117C262.951 250.117 262.346 249.873 261.904 249.385V252.438H260.82V243.66H261.811L261.863 244.363C262.305 243.816 262.918 243.543 263.703 243.543C264.465 243.543 265.066 243.83 265.508 244.404C265.953 244.979 266.176 245.777 266.176 246.801V246.9ZM265.092 246.777C265.092 246.062 264.939 245.498 264.635 245.084C264.33 244.67 263.912 244.463 263.381 244.463C262.725 244.463 262.232 244.754 261.904 245.336V248.365C262.229 248.943 262.725 249.232 263.393 249.232C263.912 249.232 264.324 249.027 264.629 248.617C264.938 248.203 265.092 247.59 265.092 246.777ZM267.271 246.771C267.271 246.15 267.393 245.592 267.635 245.096C267.881 244.6 268.221 244.217 268.654 243.947C269.092 243.678 269.59 243.543 270.148 243.543C271.012 243.543 271.709 243.842 272.24 244.439C272.775 245.037 273.043 245.832 273.043 246.824V246.9C273.043 247.518 272.924 248.072 272.686 248.564C272.451 249.053 272.113 249.434 271.672 249.707C271.234 249.98 270.73 250.117 270.16 250.117C269.301 250.117 268.604 249.818 268.068 249.221C267.537 248.623 267.271 247.832 267.271 246.848V246.771ZM268.361 246.9C268.361 247.604 268.523 248.168 268.848 248.594C269.176 249.02 269.613 249.232 270.16 249.232C270.711 249.232 271.148 249.018 271.473 248.588C271.797 248.154 271.959 247.549 271.959 246.771C271.959 246.076 271.793 245.514 271.461 245.084C271.133 244.65 270.695 244.434 270.148 244.434C269.613 244.434 269.182 244.646 268.854 245.072C268.525 245.498 268.361 246.107 268.361 246.9ZM278.094 248.318C278.094 248.025 277.982 247.799 277.76 247.639C277.541 247.475 277.156 247.334 276.605 247.217C276.059 247.1 275.623 246.959 275.299 246.795C274.979 246.631 274.74 246.436 274.584 246.209C274.432 245.982 274.355 245.713 274.355 245.4C274.355 244.881 274.574 244.441 275.012 244.082C275.453 243.723 276.016 243.543 276.699 243.543C277.418 243.543 278 243.729 278.445 244.1C278.895 244.471 279.119 244.945 279.119 245.523H278.029C278.029 245.227 277.902 244.971 277.648 244.756C277.398 244.541 277.082 244.434 276.699 244.434C276.305 244.434 275.996 244.52 275.773 244.691C275.551 244.863 275.439 245.088 275.439 245.365C275.439 245.627 275.543 245.824 275.75 245.957C275.957 246.09 276.33 246.217 276.869 246.338C277.412 246.459 277.852 246.604 278.188 246.771C278.523 246.939 278.771 247.143 278.932 247.381C279.096 247.615 279.178 247.902 279.178 248.242C279.178 248.809 278.951 249.264 278.498 249.607C278.045 249.947 277.457 250.117 276.734 250.117C276.227 250.117 275.777 250.027 275.387 249.848C274.996 249.668 274.689 249.418 274.467 249.098C274.248 248.773 274.139 248.424 274.139 248.049H275.223C275.242 248.412 275.387 248.701 275.656 248.916C275.93 249.127 276.289 249.232 276.734 249.232C277.145 249.232 277.473 249.15 277.719 248.986C277.969 248.818 278.094 248.596 278.094 248.318ZM284.281 248.318C284.281 248.025 284.17 247.799 283.947 247.639C283.729 247.475 283.344 247.334 282.793 247.217C282.246 247.1 281.811 246.959 281.486 246.795C281.166 246.631 280.928 246.436 280.771 246.209C280.619 245.982 280.543 245.713 280.543 245.4C280.543 244.881 280.762 244.441 281.199 244.082C281.641 243.723 282.203 243.543 282.887 243.543C283.605 243.543 284.188 243.729 284.633 244.1C285.082 244.471 285.307 244.945 285.307 245.523H284.217C284.217 245.227 284.09 244.971 283.836 244.756C283.586 244.541 283.27 244.434 282.887 244.434C282.492 244.434 282.184 244.52 281.961 244.691C281.738 244.863 281.627 245.088 281.627 245.365C281.627 245.627 281.73 245.824 281.938 245.957C282.145 246.09 282.518 246.217 283.057 246.338C283.6 246.459 284.039 246.604 284.375 246.771C284.711 246.939 284.959 247.143 285.119 247.381C285.283 247.615 285.365 247.902 285.365 248.242C285.365 248.809 285.139 249.264 284.686 249.607C284.232 249.947 283.645 250.117 282.922 250.117C282.414 250.117 281.965 250.027 281.574 249.848C281.184 249.668 280.877 249.418 280.654 249.098C280.436 248.773 280.326 248.424 280.326 248.049H281.41C281.43 248.412 281.574 248.701 281.844 248.916C282.117 249.127 282.477 249.232 282.922 249.232C283.332 249.232 283.66 249.15 283.906 248.986C284.156 248.818 284.281 248.596 284.281 248.318ZM287.955 250H286.871V243.66H287.955V250ZM286.783 241.979C286.783 241.803 286.836 241.654 286.941 241.533C287.051 241.412 287.211 241.352 287.422 241.352C287.633 241.352 287.793 241.412 287.902 241.533C288.012 241.654 288.066 241.803 288.066 241.979C288.066 242.154 288.012 242.301 287.902 242.418C287.793 242.535 287.633 242.594 287.422 242.594C287.211 242.594 287.051 242.535 286.941 242.418C286.836 242.301 286.783 242.154 286.783 241.979ZM295.062 246.9C295.062 247.869 294.84 248.648 294.395 249.238C293.949 249.824 293.352 250.117 292.602 250.117C291.801 250.117 291.182 249.834 290.744 249.268L290.691 250H289.695V241H290.779V244.357C291.217 243.814 291.82 243.543 292.59 243.543C293.359 243.543 293.963 243.834 294.4 244.416C294.842 244.998 295.062 245.795 295.062 246.807V246.9ZM293.979 246.777C293.979 246.039 293.836 245.469 293.551 245.066C293.266 244.664 292.855 244.463 292.32 244.463C291.605 244.463 291.092 244.795 290.779 245.459V248.201C291.111 248.865 291.629 249.197 292.332 249.197C292.852 249.197 293.256 248.996 293.545 248.594C293.834 248.191 293.979 247.586 293.979 246.777ZM297.611 250H296.527V241H297.611V250ZM301.982 250.117C301.123 250.117 300.424 249.836 299.885 249.273C299.346 248.707 299.076 247.951 299.076 247.006V246.807C299.076 246.178 299.195 245.617 299.434 245.125C299.676 244.629 300.012 244.242 300.441 243.965C300.875 243.684 301.344 243.543 301.848 243.543C302.672 243.543 303.312 243.814 303.77 244.357C304.227 244.9 304.455 245.678 304.455 246.689V247.141H300.16C300.176 247.766 300.357 248.271 300.705 248.658C301.057 249.041 301.502 249.232 302.041 249.232C302.424 249.232 302.748 249.154 303.014 248.998C303.279 248.842 303.512 248.635 303.711 248.377L304.373 248.893C303.842 249.709 303.045 250.117 301.982 250.117ZM301.848 244.434C301.41 244.434 301.043 244.594 300.746 244.914C300.449 245.23 300.266 245.676 300.195 246.25H303.371V246.168C303.34 245.617 303.191 245.191 302.926 244.891C302.66 244.586 302.301 244.434 301.848 244.434ZM309.225 250V244.498H308.223V243.66H309.225V243.01C309.225 242.33 309.406 241.805 309.77 241.434C310.133 241.062 310.646 240.877 311.311 240.877C311.561 240.877 311.809 240.91 312.055 240.977L311.996 241.855C311.812 241.82 311.617 241.803 311.41 241.803C311.059 241.803 310.787 241.906 310.596 242.113C310.404 242.316 310.309 242.609 310.309 242.992V243.66H311.662V244.498H310.309V250H309.225ZM316.777 249.373C316.355 249.869 315.736 250.117 314.92 250.117C314.244 250.117 313.729 249.922 313.373 249.531C313.021 249.137 312.844 248.555 312.84 247.785V243.66H313.924V247.756C313.924 248.717 314.314 249.197 315.096 249.197C315.924 249.197 316.475 248.889 316.748 248.271V243.66H317.832V250H316.801L316.777 249.373ZM320.955 242.125V243.66H322.139V244.498H320.955V248.43C320.955 248.684 321.008 248.875 321.113 249.004C321.219 249.129 321.398 249.191 321.652 249.191C321.777 249.191 321.949 249.168 322.168 249.121V250C321.883 250.078 321.605 250.117 321.336 250.117C320.852 250.117 320.486 249.971 320.24 249.678C319.994 249.385 319.871 248.969 319.871 248.43V244.498H318.717V243.66H319.871V242.125H320.955ZM327.324 249.373C326.902 249.869 326.283 250.117 325.467 250.117C324.791 250.117 324.275 249.922 323.92 249.531C323.568 249.137 323.391 248.555 323.387 247.785V243.66H324.471V247.756C324.471 248.717 324.861 249.197 325.643 249.197C326.471 249.197 327.021 248.889 327.295 248.271V243.66H328.379V250H327.348L327.324 249.373ZM333.096 244.633C332.932 244.605 332.754 244.592 332.562 244.592C331.852 244.592 331.369 244.895 331.115 245.5V250H330.031V243.66H331.086L331.104 244.393C331.459 243.826 331.963 243.543 332.615 243.543C332.826 243.543 332.986 243.57 333.096 243.625V244.633ZM336.611 250.117C335.752 250.117 335.053 249.836 334.514 249.273C333.975 248.707 333.705 247.951 333.705 247.006V246.807C333.705 246.178 333.824 245.617 334.062 245.125C334.305 244.629 334.641 244.242 335.07 243.965C335.504 243.684 335.973 243.543 336.477 243.543C337.301 243.543 337.941 243.814 338.398 244.357C338.855 244.9 339.084 245.678 339.084 246.689V247.141H334.789C334.805 247.766 334.986 248.271 335.334 248.658C335.686 249.041 336.131 249.232 336.67 249.232C337.053 249.232 337.377 249.154 337.643 248.998C337.908 248.842 338.141 248.635 338.34 248.377L339.002 248.893C338.471 249.709 337.674 250.117 336.611 250.117ZM336.477 244.434C336.039 244.434 335.672 244.594 335.375 244.914C335.078 245.23 334.895 245.676 334.824 246.25H338V246.168C337.969 245.617 337.82 245.191 337.555 244.891C337.289 244.586 336.93 244.434 336.477 244.434ZM344.035 248.318C344.035 248.025 343.924 247.799 343.701 247.639C343.482 247.475 343.098 247.334 342.547 247.217C342 247.1 341.564 246.959 341.24 246.795C340.92 246.631 340.682 246.436 340.525 246.209C340.373 245.982 340.297 245.713 340.297 245.4C340.297 244.881 340.516 244.441 340.953 244.082C341.395 243.723 341.957 243.543 342.641 243.543C343.359 243.543 343.941 243.729 344.387 244.1C344.836 244.471 345.061 244.945 345.061 245.523H343.971C343.971 245.227 343.844 244.971 343.59 244.756C343.34 244.541 343.023 244.434 342.641 244.434C342.246 244.434 341.938 244.52 341.715 244.691C341.492 244.863 341.381 245.088 341.381 245.365C341.381 245.627 341.484 245.824 341.691 245.957C341.898 246.09 342.271 246.217 342.811 246.338C343.354 246.459 343.793 246.604 344.129 246.771C344.465 246.939 344.713 247.143 344.873 247.381C345.037 247.615 345.119 247.902 345.119 248.242C345.119 248.809 344.893 249.264 344.439 249.607C343.986 249.947 343.398 250.117 342.676 250.117C342.168 250.117 341.719 250.027 341.328 249.848C340.938 249.668 340.631 249.418 340.408 249.098C340.189 248.773 340.08 248.424 340.08 248.049H341.164C341.184 248.412 341.328 248.701 341.598 248.916C341.871 249.127 342.23 249.232 342.676 249.232C343.086 249.232 343.414 249.15 343.66 248.986C343.91 248.818 344.035 248.596 344.035 248.318Z" fill="black"/>
<path d="M78.8848 173.633C78.7207 173.605 78.543 173.592 78.3516 173.592C77.6406 173.592 77.1582 173.895 76.9043 174.5V179H75.8203V172.66H76.875L76.8926 173.393C77.248 172.826 77.752 172.543 78.4043 172.543C78.6152 172.543 78.7754 172.57 78.8848 172.625V173.633ZM82.4004 179.117C81.541 179.117 80.8418 178.836 80.3027 178.273C79.7637 177.707 79.4941 176.951 79.4941 176.006V175.807C79.4941 175.178 79.6133 174.617 79.8516 174.125C80.0938 173.629 80.4297 173.242 80.8594 172.965C81.293 172.684 81.7617 172.543 82.2656 172.543C83.0898 172.543 83.7305 172.814 84.1875 173.357C84.6445 173.9 84.873 174.678 84.873 175.689V176.141H80.5781C80.5938 176.766 80.7754 177.271 81.123 177.658C81.4746 178.041 81.9199 178.232 82.459 178.232C82.8418 178.232 83.166 178.154 83.4316 177.998C83.6973 177.842 83.9297 177.635 84.1289 177.377L84.791 177.893C84.2598 178.709 83.4629 179.117 82.4004 179.117ZM82.2656 173.434C81.8281 173.434 81.4609 173.594 81.1641 173.914C80.8672 174.23 80.6836 174.676 80.6133 175.25H83.7891V175.168C83.7578 174.617 83.6094 174.191 83.3438 173.891C83.0781 173.586 82.7188 173.434 82.2656 173.434ZM90.0469 179C89.9844 178.875 89.9336 178.652 89.8945 178.332C89.3906 178.855 88.7891 179.117 88.0898 179.117C87.4648 179.117 86.9512 178.941 86.5488 178.59C86.1504 178.234 85.9512 177.785 85.9512 177.242C85.9512 176.582 86.2012 176.07 86.7012 175.707C87.2051 175.34 87.9121 175.156 88.8223 175.156H89.877V174.658C89.877 174.279 89.7637 173.979 89.5371 173.756C89.3105 173.529 88.9766 173.416 88.5352 173.416C88.1484 173.416 87.8242 173.514 87.5625 173.709C87.3008 173.904 87.1699 174.141 87.1699 174.418H86.0801C86.0801 174.102 86.1914 173.797 86.4141 173.504C86.6406 173.207 86.9453 172.973 87.3281 172.801C87.7148 172.629 88.1387 172.543 88.5996 172.543C89.3301 172.543 89.9023 172.727 90.3164 173.094C90.7305 173.457 90.9453 173.959 90.9609 174.6V177.518C90.9609 178.1 91.0352 178.562 91.1836 178.906V179H90.0469ZM88.248 178.174C88.5879 178.174 88.9102 178.086 89.2148 177.91C89.5195 177.734 89.7402 177.506 89.877 177.225V175.924H89.0273C87.6992 175.924 87.0352 176.312 87.0352 177.09C87.0352 177.43 87.1484 177.695 87.375 177.887C87.6016 178.078 87.8926 178.174 88.248 178.174ZM92.3965 175.777C92.3965 174.805 92.627 174.023 93.0879 173.434C93.5488 172.84 94.1523 172.543 94.8984 172.543C95.6406 172.543 96.2285 172.797 96.6621 173.305V170H97.7461V179H96.75L96.6973 178.32C96.2637 178.852 95.6602 179.117 94.8867 179.117C94.1523 179.117 93.5527 178.816 93.0879 178.215C92.627 177.613 92.3965 176.828 92.3965 175.859V175.777ZM93.4805 175.9C93.4805 176.619 93.6289 177.182 93.9258 177.588C94.2227 177.994 94.6328 178.197 95.1562 178.197C95.8438 178.197 96.3457 177.889 96.6621 177.271V174.359C96.3379 173.762 95.8398 173.463 95.168 173.463C94.6367 173.463 94.2227 173.668 93.9258 174.078C93.6289 174.488 93.4805 175.096 93.4805 175.9ZM101.508 177.412L102.984 172.66H104.145L101.596 179.979C101.201 181.033 100.574 181.561 99.7148 181.561L99.5098 181.543L99.1055 181.467V180.588L99.3984 180.611C99.7656 180.611 100.051 180.537 100.254 180.389C100.461 180.24 100.631 179.969 100.764 179.574L101.004 178.93L98.7422 172.66H99.9258L101.508 177.412ZM111.785 177.318C111.785 177.025 111.674 176.799 111.451 176.639C111.232 176.475 110.848 176.334 110.297 176.217C109.75 176.1 109.314 175.959 108.99 175.795C108.67 175.631 108.432 175.436 108.275 175.209C108.123 174.982 108.047 174.713 108.047 174.4C108.047 173.881 108.266 173.441 108.703 173.082C109.145 172.723 109.707 172.543 110.391 172.543C111.109 172.543 111.691 172.729 112.137 173.1C112.586 173.471 112.811 173.945 112.811 174.523H111.721C111.721 174.227 111.594 173.971 111.34 173.756C111.09 173.541 110.773 173.434 110.391 173.434C109.996 173.434 109.688 173.52 109.465 173.691C109.242 173.863 109.131 174.088 109.131 174.365C109.131 174.627 109.234 174.824 109.441 174.957C109.648 175.09 110.021 175.217 110.561 175.338C111.104 175.459 111.543 175.604 111.879 175.771C112.215 175.939 112.463 176.143 112.623 176.381C112.787 176.615 112.869 176.902 112.869 177.242C112.869 177.809 112.643 178.264 112.189 178.607C111.736 178.947 111.148 179.117 110.426 179.117C109.918 179.117 109.469 179.027 109.078 178.848C108.688 178.668 108.381 178.418 108.158 178.098C107.939 177.773 107.83 177.424 107.83 177.049H108.914C108.934 177.412 109.078 177.701 109.348 177.916C109.621 178.127 109.98 178.232 110.426 178.232C110.836 178.232 111.164 178.15 111.41 177.986C111.66 177.818 111.785 177.596 111.785 177.318ZM115.459 179H114.375V172.66H115.459V179ZM114.287 170.979C114.287 170.803 114.34 170.654 114.445 170.533C114.555 170.412 114.715 170.352 114.926 170.352C115.137 170.352 115.297 170.412 115.406 170.533C115.516 170.654 115.57 170.803 115.57 170.979C115.57 171.154 115.516 171.301 115.406 171.418C115.297 171.535 115.137 171.594 114.926 171.594C114.715 171.594 114.555 171.535 114.445 171.418C114.34 171.301 114.287 171.154 114.287 170.979ZM118.219 172.66L118.248 173.363C118.713 172.816 119.34 172.543 120.129 172.543C121.016 172.543 121.619 172.883 121.939 173.562C122.15 173.258 122.424 173.012 122.76 172.824C123.1 172.637 123.5 172.543 123.961 172.543C125.352 172.543 126.059 173.279 126.082 174.752V179H124.998V174.816C124.998 174.363 124.895 174.025 124.688 173.803C124.48 173.576 124.133 173.463 123.645 173.463C123.242 173.463 122.908 173.584 122.643 173.826C122.377 174.064 122.223 174.387 122.18 174.793V179H121.09V174.846C121.09 173.924 120.639 173.463 119.736 173.463C119.025 173.463 118.539 173.766 118.277 174.371V179H117.193V172.66H118.219ZM131.637 178.373C131.215 178.869 130.596 179.117 129.779 179.117C129.104 179.117 128.588 178.922 128.232 178.531C127.881 178.137 127.703 177.555 127.699 176.785V172.66H128.783V176.756C128.783 177.717 129.174 178.197 129.955 178.197C130.783 178.197 131.334 177.889 131.607 177.271V172.66H132.691V179H131.66L131.637 178.373ZM135.521 179H134.438V170H135.521V179ZM141.176 179C141.113 178.875 141.062 178.652 141.023 178.332C140.52 178.855 139.918 179.117 139.219 179.117C138.594 179.117 138.08 178.941 137.678 178.59C137.279 178.234 137.08 177.785 137.08 177.242C137.08 176.582 137.33 176.07 137.83 175.707C138.334 175.34 139.041 175.156 139.951 175.156H141.006V174.658C141.006 174.279 140.893 173.979 140.666 173.756C140.439 173.529 140.105 173.416 139.664 173.416C139.277 173.416 138.953 173.514 138.691 173.709C138.43 173.904 138.299 174.141 138.299 174.418H137.209C137.209 174.102 137.32 173.797 137.543 173.504C137.77 173.207 138.074 172.973 138.457 172.801C138.844 172.629 139.268 172.543 139.729 172.543C140.459 172.543 141.031 172.727 141.445 173.094C141.859 173.457 142.074 173.959 142.09 174.6V177.518C142.09 178.1 142.164 178.562 142.312 178.906V179H141.176ZM139.377 178.174C139.717 178.174 140.039 178.086 140.344 177.91C140.648 177.734 140.869 177.506 141.006 177.225V175.924H140.156C138.828 175.924 138.164 176.312 138.164 177.09C138.164 177.43 138.277 177.695 138.504 177.887C138.73 178.078 139.021 178.174 139.377 178.174ZM145.26 171.125V172.66H146.443V173.498H145.26V177.43C145.26 177.684 145.312 177.875 145.418 178.004C145.523 178.129 145.703 178.191 145.957 178.191C146.082 178.191 146.254 178.168 146.473 178.121V179C146.188 179.078 145.91 179.117 145.641 179.117C145.156 179.117 144.791 178.971 144.545 178.678C144.299 178.385 144.176 177.969 144.176 177.43V173.498H143.021V172.66H144.176V171.125H145.26ZM148.893 179H147.809V172.66H148.893V179ZM147.721 170.979C147.721 170.803 147.773 170.654 147.879 170.533C147.988 170.412 148.148 170.352 148.359 170.352C148.57 170.352 148.73 170.412 148.84 170.533C148.949 170.654 149.004 170.803 149.004 170.979C149.004 171.154 148.949 171.301 148.84 171.418C148.73 171.535 148.57 171.594 148.359 171.594C148.148 171.594 147.988 171.535 147.879 171.418C147.773 171.301 147.721 171.154 147.721 170.979ZM150.346 175.771C150.346 175.15 150.467 174.592 150.709 174.096C150.955 173.6 151.295 173.217 151.729 172.947C152.166 172.678 152.664 172.543 153.223 172.543C154.086 172.543 154.783 172.842 155.314 173.439C155.85 174.037 156.117 174.832 156.117 175.824V175.9C156.117 176.518 155.998 177.072 155.76 177.564C155.525 178.053 155.188 178.434 154.746 178.707C154.309 178.98 153.805 179.117 153.234 179.117C152.375 179.117 151.678 178.818 151.143 178.221C150.611 177.623 150.346 176.832 150.346 175.848V175.771ZM151.436 175.9C151.436 176.604 151.598 177.168 151.922 177.594C152.25 178.02 152.688 178.232 153.234 178.232C153.785 178.232 154.223 178.018 154.547 177.588C154.871 177.154 155.033 176.549 155.033 175.771C155.033 175.076 154.867 174.514 154.535 174.084C154.207 173.65 153.77 173.434 153.223 173.434C152.688 173.434 152.256 173.646 151.928 174.072C151.6 174.498 151.436 175.107 151.436 175.9ZM158.502 172.66L158.537 173.457C159.021 172.848 159.654 172.543 160.436 172.543C161.775 172.543 162.451 173.299 162.463 174.811V179H161.379V174.805C161.375 174.348 161.27 174.01 161.062 173.791C160.859 173.572 160.541 173.463 160.107 173.463C159.756 173.463 159.447 173.557 159.182 173.744C158.916 173.932 158.709 174.178 158.561 174.482V179H157.477V172.66H158.502Z" fill="black"/>
<path d="M137.299 108.109V109H131.715V108.221L134.51 105.109C134.854 104.727 135.119 104.402 135.307 104.137C135.498 103.867 135.631 103.627 135.705 103.416C135.783 103.201 135.822 102.982 135.822 102.76C135.822 102.479 135.764 102.225 135.646 101.998C135.533 101.768 135.365 101.584 135.143 101.447C134.92 101.311 134.65 101.242 134.334 101.242C133.955 101.242 133.639 101.316 133.385 101.465C133.135 101.609 132.947 101.812 132.822 102.074C132.697 102.336 132.635 102.637 132.635 102.977H131.551C131.551 102.496 131.656 102.057 131.867 101.658C132.078 101.26 132.391 100.943 132.805 100.709C133.219 100.471 133.729 100.352 134.334 100.352C134.873 100.352 135.334 100.447 135.717 100.639C136.1 100.826 136.393 101.092 136.596 101.436C136.803 101.775 136.906 102.174 136.906 102.631C136.906 102.881 136.863 103.135 136.777 103.393C136.695 103.646 136.58 103.9 136.432 104.154C136.287 104.408 136.117 104.658 135.922 104.904C135.73 105.15 135.525 105.393 135.307 105.631L133.021 108.109H137.299ZM140.832 104.928V105.818H137.973V104.928H140.832ZM142.977 104.014V109H141.893V102.66H142.918L142.977 104.014ZM142.719 105.59L142.268 105.572C142.271 105.139 142.336 104.738 142.461 104.371C142.586 104 142.762 103.678 142.988 103.404C143.215 103.131 143.484 102.92 143.797 102.771C144.113 102.619 144.463 102.543 144.846 102.543C145.158 102.543 145.439 102.586 145.689 102.672C145.939 102.754 146.152 102.887 146.328 103.07C146.508 103.254 146.645 103.492 146.738 103.785C146.832 104.074 146.879 104.428 146.879 104.846V109H145.789V104.834C145.789 104.502 145.74 104.236 145.643 104.037C145.545 103.834 145.402 103.688 145.215 103.598C145.027 103.504 144.797 103.457 144.523 103.457C144.254 103.457 144.008 103.514 143.785 103.627C143.566 103.74 143.377 103.896 143.217 104.096C143.061 104.295 142.938 104.523 142.848 104.781C142.762 105.035 142.719 105.305 142.719 105.59ZM151.156 109.117C150.715 109.117 150.314 109.043 149.955 108.895C149.6 108.742 149.293 108.529 149.035 108.256C148.781 107.982 148.586 107.658 148.449 107.283C148.312 106.908 148.244 106.498 148.244 106.053V105.807C148.244 105.291 148.32 104.832 148.473 104.43C148.625 104.023 148.832 103.68 149.094 103.398C149.355 103.117 149.652 102.904 149.984 102.76C150.316 102.615 150.66 102.543 151.016 102.543C151.469 102.543 151.859 102.621 152.188 102.777C152.52 102.934 152.791 103.152 153.002 103.434C153.213 103.711 153.369 104.039 153.471 104.418C153.572 104.793 153.623 105.203 153.623 105.648V106.135H148.889V105.25H152.539V105.168C152.523 104.887 152.465 104.613 152.363 104.348C152.266 104.082 152.109 103.863 151.895 103.691C151.68 103.52 151.387 103.434 151.016 103.434C150.77 103.434 150.543 103.486 150.336 103.592C150.129 103.693 149.951 103.846 149.803 104.049C149.654 104.252 149.539 104.5 149.457 104.793C149.375 105.086 149.334 105.424 149.334 105.807V106.053C149.334 106.354 149.375 106.637 149.457 106.902C149.543 107.164 149.666 107.395 149.826 107.594C149.99 107.793 150.188 107.949 150.418 108.062C150.652 108.176 150.918 108.232 151.215 108.232C151.598 108.232 151.922 108.154 152.188 107.998C152.453 107.842 152.686 107.633 152.885 107.371L153.541 107.893C153.404 108.1 153.23 108.297 153.02 108.484C152.809 108.672 152.549 108.824 152.24 108.941C151.936 109.059 151.574 109.117 151.156 109.117ZM158.58 107.318C158.58 107.162 158.545 107.018 158.475 106.885C158.408 106.748 158.27 106.625 158.059 106.516C157.852 106.402 157.539 106.305 157.121 106.223C156.77 106.148 156.451 106.061 156.166 105.959C155.885 105.857 155.645 105.734 155.445 105.59C155.25 105.445 155.1 105.275 154.994 105.08C154.889 104.885 154.836 104.656 154.836 104.395C154.836 104.145 154.891 103.908 155 103.686C155.113 103.463 155.271 103.266 155.475 103.094C155.682 102.922 155.93 102.787 156.219 102.689C156.508 102.592 156.83 102.543 157.186 102.543C157.693 102.543 158.127 102.633 158.486 102.812C158.846 102.992 159.121 103.232 159.312 103.533C159.504 103.83 159.6 104.16 159.6 104.523H158.516C158.516 104.348 158.463 104.178 158.357 104.014C158.256 103.846 158.105 103.707 157.906 103.598C157.711 103.488 157.471 103.434 157.186 103.434C156.885 103.434 156.641 103.48 156.453 103.574C156.27 103.664 156.135 103.779 156.049 103.92C155.967 104.061 155.926 104.209 155.926 104.365C155.926 104.482 155.945 104.588 155.984 104.682C156.027 104.771 156.102 104.855 156.207 104.934C156.312 105.008 156.461 105.078 156.652 105.145C156.844 105.211 157.088 105.277 157.385 105.344C157.904 105.461 158.332 105.602 158.668 105.766C159.004 105.93 159.254 106.131 159.418 106.369C159.582 106.607 159.664 106.896 159.664 107.236C159.664 107.514 159.605 107.768 159.488 107.998C159.375 108.229 159.209 108.428 158.99 108.596C158.775 108.76 158.518 108.889 158.217 108.982C157.92 109.072 157.586 109.117 157.215 109.117C156.656 109.117 156.184 109.018 155.797 108.818C155.41 108.619 155.117 108.361 154.918 108.045C154.719 107.729 154.619 107.395 154.619 107.043H155.709C155.725 107.34 155.811 107.576 155.967 107.752C156.123 107.924 156.314 108.047 156.541 108.121C156.768 108.191 156.992 108.227 157.215 108.227C157.512 108.227 157.76 108.188 157.959 108.109C158.162 108.031 158.316 107.924 158.422 107.787C158.527 107.65 158.58 107.494 158.58 107.318ZM163.742 102.66V103.492H160.314V102.66H163.742ZM161.475 101.119H162.559V107.43C162.559 107.645 162.592 107.807 162.658 107.916C162.725 108.025 162.811 108.098 162.916 108.133C163.021 108.168 163.135 108.186 163.256 108.186C163.346 108.186 163.439 108.178 163.537 108.162C163.639 108.143 163.715 108.127 163.766 108.115L163.771 109C163.686 109.027 163.572 109.053 163.432 109.076C163.295 109.104 163.129 109.117 162.934 109.117C162.668 109.117 162.424 109.064 162.201 108.959C161.979 108.854 161.801 108.678 161.668 108.432C161.539 108.182 161.475 107.846 161.475 107.424V101.119ZM167.645 109.117C167.203 109.117 166.803 109.043 166.443 108.895C166.088 108.742 165.781 108.529 165.523 108.256C165.27 107.982 165.074 107.658 164.938 107.283C164.801 106.908 164.732 106.498 164.732 106.053V105.807C164.732 105.291 164.809 104.832 164.961 104.43C165.113 104.023 165.32 103.68 165.582 103.398C165.844 103.117 166.141 102.904 166.473 102.76C166.805 102.615 167.148 102.543 167.504 102.543C167.957 102.543 168.348 102.621 168.676 102.777C169.008 102.934 169.279 103.152 169.49 103.434C169.701 103.711 169.857 104.039 169.959 104.418C170.061 104.793 170.111 105.203 170.111 105.648V106.135H165.377V105.25H169.027V105.168C169.012 104.887 168.953 104.613 168.852 104.348C168.754 104.082 168.598 103.863 168.383 103.691C168.168 103.52 167.875 103.434 167.504 103.434C167.258 103.434 167.031 103.486 166.824 103.592C166.617 103.693 166.439 103.846 166.291 104.049C166.143 104.252 166.027 104.5 165.945 104.793C165.863 105.086 165.822 105.424 165.822 105.807V106.053C165.822 106.354 165.863 106.637 165.945 106.902C166.031 107.164 166.154 107.395 166.314 107.594C166.479 107.793 166.676 107.949 166.906 108.062C167.141 108.176 167.406 108.232 167.703 108.232C168.086 108.232 168.41 108.154 168.676 107.998C168.941 107.842 169.174 107.633 169.373 107.371L170.029 107.893C169.893 108.1 169.719 108.297 169.508 108.484C169.297 108.672 169.037 108.824 168.729 108.941C168.424 109.059 168.062 109.117 167.645 109.117ZM175.373 107.77V100H176.463V109H175.467L175.373 107.77ZM171.107 105.9V105.777C171.107 105.293 171.166 104.854 171.283 104.459C171.404 104.061 171.574 103.719 171.793 103.434C172.016 103.148 172.279 102.93 172.584 102.777C172.893 102.621 173.236 102.543 173.615 102.543C174.014 102.543 174.361 102.613 174.658 102.754C174.959 102.891 175.213 103.092 175.42 103.357C175.631 103.619 175.797 103.936 175.918 104.307C176.039 104.678 176.123 105.098 176.17 105.566V106.105C176.127 106.57 176.043 106.988 175.918 107.359C175.797 107.73 175.631 108.047 175.42 108.309C175.213 108.57 174.959 108.771 174.658 108.912C174.357 109.049 174.006 109.117 173.604 109.117C173.232 109.117 172.893 109.037 172.584 108.877C172.279 108.717 172.016 108.492 171.793 108.203C171.574 107.914 171.404 107.574 171.283 107.184C171.166 106.789 171.107 106.361 171.107 105.9ZM172.197 105.777V105.9C172.197 106.217 172.229 106.514 172.291 106.791C172.357 107.068 172.459 107.312 172.596 107.523C172.732 107.734 172.906 107.9 173.117 108.021C173.328 108.139 173.58 108.197 173.873 108.197C174.232 108.197 174.527 108.121 174.758 107.969C174.992 107.816 175.18 107.615 175.32 107.365C175.461 107.115 175.57 106.844 175.648 106.551V105.139C175.602 104.924 175.533 104.717 175.443 104.518C175.357 104.314 175.244 104.135 175.104 103.979C174.967 103.818 174.797 103.691 174.594 103.598C174.395 103.504 174.158 103.457 173.885 103.457C173.588 103.457 173.332 103.52 173.117 103.645C172.906 103.766 172.732 103.934 172.596 104.148C172.459 104.359 172.357 104.605 172.291 104.887C172.229 105.164 172.197 105.461 172.197 105.777ZM184.818 107.318C184.818 107.162 184.783 107.018 184.713 106.885C184.646 106.748 184.508 106.625 184.297 106.516C184.09 106.402 183.777 106.305 183.359 106.223C183.008 106.148 182.689 106.061 182.404 105.959C182.123 105.857 181.883 105.734 181.684 105.59C181.488 105.445 181.338 105.275 181.232 105.08C181.127 104.885 181.074 104.656 181.074 104.395C181.074 104.145 181.129 103.908 181.238 103.686C181.352 103.463 181.51 103.266 181.713 103.094C181.92 102.922 182.168 102.787 182.457 102.689C182.746 102.592 183.068 102.543 183.424 102.543C183.932 102.543 184.365 102.633 184.725 102.812C185.084 102.992 185.359 103.232 185.551 103.533C185.742 103.83 185.838 104.16 185.838 104.523H184.754C184.754 104.348 184.701 104.178 184.596 104.014C184.494 103.846 184.344 103.707 184.145 103.598C183.949 103.488 183.709 103.434 183.424 103.434C183.123 103.434 182.879 103.48 182.691 103.574C182.508 103.664 182.373 103.779 182.287 103.92C182.205 104.061 182.164 104.209 182.164 104.365C182.164 104.482 182.184 104.588 182.223 104.682C182.266 104.771 182.34 104.855 182.445 104.934C182.551 105.008 182.699 105.078 182.891 105.145C183.082 105.211 183.326 105.277 183.623 105.344C184.143 105.461 184.57 105.602 184.906 105.766C185.242 105.93 185.492 106.131 185.656 106.369C185.82 106.607 185.902 106.896 185.902 107.236C185.902 107.514 185.844 107.768 185.727 107.998C185.613 108.229 185.447 108.428 185.229 108.596C185.014 108.76 184.756 108.889 184.455 108.982C184.158 109.072 183.824 109.117 183.453 109.117C182.895 109.117 182.422 109.018 182.035 108.818C181.648 108.619 181.355 108.361 181.156 108.045C180.957 107.729 180.857 107.395 180.857 107.043H181.947C181.963 107.34 182.049 107.576 182.205 107.752C182.361 107.924 182.553 108.047 182.779 108.121C183.006 108.191 183.23 108.227 183.453 108.227C183.75 108.227 183.998 108.188 184.197 108.109C184.4 108.031 184.555 107.924 184.66 107.787C184.766 107.65 184.818 107.494 184.818 107.318ZM188.504 102.66V109H187.414V102.66H188.504ZM187.332 100.979C187.332 100.803 187.385 100.654 187.49 100.533C187.6 100.412 187.76 100.352 187.971 100.352C188.178 100.352 188.336 100.412 188.445 100.533C188.559 100.654 188.615 100.803 188.615 100.979C188.615 101.146 188.559 101.291 188.445 101.412C188.336 101.529 188.178 101.588 187.971 101.588C187.76 101.588 187.6 101.529 187.49 101.412C187.385 101.291 187.332 101.146 187.332 100.979ZM191.322 103.92V109H190.232V102.66H191.264L191.322 103.92ZM191.1 105.59L190.596 105.572C190.6 105.139 190.656 104.738 190.766 104.371C190.875 104 191.037 103.678 191.252 103.404C191.467 103.131 191.734 102.92 192.055 102.771C192.375 102.619 192.746 102.543 193.168 102.543C193.465 102.543 193.738 102.586 193.988 102.672C194.238 102.754 194.455 102.885 194.639 103.064C194.822 103.244 194.965 103.475 195.066 103.756C195.168 104.037 195.219 104.377 195.219 104.775V109H194.135V104.828C194.135 104.496 194.078 104.23 193.965 104.031C193.855 103.832 193.699 103.688 193.496 103.598C193.293 103.504 193.055 103.457 192.781 103.457C192.461 103.457 192.193 103.514 191.979 103.627C191.764 103.74 191.592 103.896 191.463 104.096C191.334 104.295 191.24 104.523 191.182 104.781C191.127 105.035 191.1 105.305 191.1 105.59ZM195.207 104.992L194.48 105.215C194.484 104.867 194.541 104.533 194.65 104.213C194.764 103.893 194.926 103.607 195.137 103.357C195.352 103.107 195.615 102.91 195.928 102.766C196.24 102.617 196.598 102.543 197 102.543C197.34 102.543 197.641 102.588 197.902 102.678C198.168 102.768 198.391 102.906 198.57 103.094C198.754 103.277 198.893 103.514 198.986 103.803C199.08 104.092 199.127 104.436 199.127 104.834V109H198.037V104.822C198.037 104.467 197.98 104.191 197.867 103.996C197.758 103.797 197.602 103.658 197.398 103.58C197.199 103.498 196.961 103.457 196.684 103.457C196.445 103.457 196.234 103.498 196.051 103.58C195.867 103.662 195.713 103.775 195.588 103.92C195.463 104.061 195.367 104.223 195.301 104.406C195.238 104.59 195.207 104.785 195.207 104.992ZM204.646 107.535V102.66H205.736V109H204.699L204.646 107.535ZM204.852 106.199L205.303 106.188C205.303 106.609 205.258 107 205.168 107.359C205.082 107.715 204.941 108.023 204.746 108.285C204.551 108.547 204.295 108.752 203.979 108.9C203.662 109.045 203.277 109.117 202.824 109.117C202.516 109.117 202.232 109.072 201.975 108.982C201.721 108.893 201.502 108.754 201.318 108.566C201.135 108.379 200.992 108.135 200.891 107.834C200.793 107.533 200.744 107.172 200.744 106.75V102.66H201.828V106.762C201.828 107.047 201.859 107.283 201.922 107.471C201.988 107.654 202.076 107.801 202.186 107.91C202.299 108.016 202.424 108.09 202.561 108.133C202.701 108.176 202.846 108.197 202.994 108.197C203.455 108.197 203.82 108.109 204.09 107.934C204.359 107.754 204.553 107.514 204.67 107.213C204.791 106.908 204.852 106.57 204.852 106.199ZM208.566 100V109H207.477V100H208.566ZM214.045 107.916V104.652C214.045 104.402 213.994 104.186 213.893 104.002C213.795 103.814 213.646 103.67 213.447 103.568C213.248 103.467 213.002 103.416 212.709 103.416C212.436 103.416 212.195 103.463 211.988 103.557C211.785 103.65 211.625 103.773 211.508 103.926C211.395 104.078 211.338 104.242 211.338 104.418H210.254C210.254 104.191 210.312 103.967 210.43 103.744C210.547 103.521 210.715 103.32 210.934 103.141C211.156 102.957 211.422 102.812 211.73 102.707C212.043 102.598 212.391 102.543 212.773 102.543C213.234 102.543 213.641 102.621 213.992 102.777C214.348 102.934 214.625 103.17 214.824 103.486C215.027 103.799 215.129 104.191 215.129 104.664V107.617C215.129 107.828 215.146 108.053 215.182 108.291C215.221 108.529 215.277 108.734 215.352 108.906V109H214.221C214.166 108.875 214.123 108.709 214.092 108.502C214.061 108.291 214.045 108.096 214.045 107.916ZM214.232 105.156L214.244 105.918H213.148C212.84 105.918 212.564 105.943 212.322 105.994C212.08 106.041 211.877 106.113 211.713 106.211C211.549 106.309 211.424 106.432 211.338 106.58C211.252 106.725 211.209 106.895 211.209 107.09C211.209 107.289 211.254 107.471 211.344 107.635C211.434 107.799 211.568 107.93 211.748 108.027C211.932 108.121 212.156 108.168 212.422 108.168C212.754 108.168 213.047 108.098 213.301 107.957C213.555 107.816 213.756 107.645 213.904 107.441C214.057 107.238 214.139 107.041 214.15 106.85L214.613 107.371C214.586 107.535 214.512 107.717 214.391 107.916C214.27 108.115 214.107 108.307 213.904 108.49C213.705 108.67 213.467 108.82 213.189 108.941C212.916 109.059 212.607 109.117 212.264 109.117C211.834 109.117 211.457 109.033 211.133 108.865C210.812 108.697 210.562 108.473 210.383 108.191C210.207 107.906 210.119 107.588 210.119 107.236C210.119 106.896 210.186 106.598 210.318 106.34C210.451 106.078 210.643 105.861 210.893 105.689C211.143 105.514 211.443 105.381 211.795 105.291C212.146 105.201 212.539 105.156 212.973 105.156H214.232ZM219.488 102.66V103.492H216.061V102.66H219.488ZM217.221 101.119H218.305V107.43C218.305 107.645 218.338 107.807 218.404 107.916C218.471 108.025 218.557 108.098 218.662 108.133C218.768 108.168 218.881 108.186 219.002 108.186C219.092 108.186 219.186 108.178 219.283 108.162C219.385 108.143 219.461 108.127 219.512 108.115L219.518 109C219.432 109.027 219.318 109.053 219.178 109.076C219.041 109.104 218.875 109.117 218.68 109.117C218.414 109.117 218.17 109.064 217.947 108.959C217.725 108.854 217.547 108.678 217.414 108.432C217.285 108.182 217.221 107.846 217.221 107.424V101.119ZM221.938 102.66V109H220.848V102.66H221.938ZM220.766 100.979C220.766 100.803 220.818 100.654 220.924 100.533C221.033 100.412 221.193 100.352 221.404 100.352C221.611 100.352 221.77 100.412 221.879 100.533C221.992 100.654 222.049 100.803 222.049 100.979C222.049 101.146 221.992 101.291 221.879 101.412C221.77 101.529 221.611 101.588 221.404 101.588C221.193 101.588 221.033 101.529 220.924 101.412C220.818 101.291 220.766 101.146 220.766 100.979ZM223.391 105.9V105.766C223.391 105.309 223.457 104.885 223.59 104.494C223.723 104.1 223.914 103.758 224.164 103.469C224.414 103.176 224.717 102.949 225.072 102.789C225.428 102.625 225.826 102.543 226.268 102.543C226.713 102.543 227.113 102.625 227.469 102.789C227.828 102.949 228.133 103.176 228.383 103.469C228.637 103.758 228.83 104.1 228.963 104.494C229.096 104.885 229.162 105.309 229.162 105.766V105.9C229.162 106.357 229.096 106.781 228.963 107.172C228.83 107.562 228.637 107.904 228.383 108.197C228.133 108.486 227.83 108.713 227.475 108.877C227.123 109.037 226.725 109.117 226.279 109.117C225.834 109.117 225.434 109.037 225.078 108.877C224.723 108.713 224.418 108.486 224.164 108.197C223.914 107.904 223.723 107.562 223.59 107.172C223.457 106.781 223.391 106.357 223.391 105.9ZM224.475 105.766V105.9C224.475 106.217 224.512 106.516 224.586 106.797C224.66 107.074 224.771 107.32 224.92 107.535C225.072 107.75 225.262 107.92 225.488 108.045C225.715 108.166 225.979 108.227 226.279 108.227C226.576 108.227 226.836 108.166 227.059 108.045C227.285 107.92 227.473 107.75 227.621 107.535C227.77 107.32 227.881 107.074 227.955 106.797C228.033 106.516 228.072 106.217 228.072 105.9V105.766C228.072 105.453 228.033 105.158 227.955 104.881C227.881 104.6 227.768 104.352 227.615 104.137C227.467 103.918 227.279 103.746 227.053 103.621C226.83 103.496 226.568 103.434 226.268 103.434C225.971 103.434 225.709 103.496 225.482 103.621C225.26 103.746 225.072 103.918 224.92 104.137C224.771 104.352 224.66 104.6 224.586 104.881C224.512 105.158 224.475 105.453 224.475 105.766ZM231.605 104.014V109H230.521V102.66H231.547L231.605 104.014ZM231.348 105.59L230.896 105.572C230.9 105.139 230.965 104.738 231.09 104.371C231.215 104 231.391 103.678 231.617 103.404C231.844 103.131 232.113 102.92 232.426 102.771C232.742 102.619 233.092 102.543 233.475 102.543C233.787 102.543 234.068 102.586 234.318 102.672C234.568 102.754 234.781 102.887 234.957 103.07C235.137 103.254 235.273 103.492 235.367 103.785C235.461 104.074 235.508 104.428 235.508 104.846V109H234.418V104.834C234.418 104.502 234.369 104.236 234.271 104.037C234.174 103.834 234.031 103.688 233.844 103.598C233.656 103.504 233.426 103.457 233.152 103.457C232.883 103.457 232.637 103.514 232.414 103.627C232.195 103.74 232.006 103.896 231.846 104.096C231.689 104.295 231.566 104.523 231.477 104.781C231.391 105.035 231.348 105.305 231.348 105.59Z" fill="black"/>
<path d="M159.164 35.9004C159.164 36.8691 158.941 37.6484 158.496 38.2383C158.051 38.8242 157.453 39.1172 156.703 39.1172C155.902 39.1172 155.283 38.834 154.846 38.2676L154.793 39H153.797V30H154.881V33.3574C155.318 32.8145 155.922 32.543 156.691 32.543C157.461 32.543 158.064 32.834 158.502 33.416C158.943 33.998 159.164 34.7949 159.164 35.8066V35.9004ZM158.08 35.7773C158.08 35.0391 157.938 34.4688 157.652 34.0664C157.367 33.6641 156.957 33.4629 156.422 33.4629C155.707 33.4629 155.193 33.7949 154.881 34.459V37.2012C155.213 37.8652 155.73 38.1973 156.434 38.1973C156.953 38.1973 157.357 37.9961 157.646 37.5938C157.936 37.1914 158.08 36.5859 158.08 35.7773ZM161.713 39H160.629V32.6602H161.713V39ZM160.541 30.9785C160.541 30.8027 160.594 30.6543 160.699 30.5332C160.809 30.4121 160.969 30.3516 161.18 30.3516C161.391 30.3516 161.551 30.4121 161.66 30.5332C161.77 30.6543 161.824 30.8027 161.824 30.9785C161.824 31.1543 161.77 31.3008 161.66 31.418C161.551 31.5352 161.391 31.5938 161.18 31.5938C160.969 31.5938 160.809 31.5352 160.699 31.418C160.594 31.3008 160.541 31.1543 160.541 30.9785ZM167.145 37.3184C167.145 37.0254 167.033 36.7988 166.811 36.6387C166.592 36.4746 166.207 36.334 165.656 36.2168C165.109 36.0996 164.674 35.959 164.35 35.7949C164.029 35.6309 163.791 35.4355 163.635 35.209C163.482 34.9824 163.406 34.7129 163.406 34.4004C163.406 33.8809 163.625 33.4414 164.062 33.082C164.504 32.7227 165.066 32.543 165.75 32.543C166.469 32.543 167.051 32.7285 167.496 33.0996C167.945 33.4707 168.17 33.9453 168.17 34.5234H167.08C167.08 34.2266 166.953 33.9707 166.699 33.7559C166.449 33.541 166.133 33.4336 165.75 33.4336C165.355 33.4336 165.047 33.5195 164.824 33.6914C164.602 33.8633 164.49 34.0879 164.49 34.3652C164.49 34.627 164.594 34.8242 164.801 34.957C165.008 35.0898 165.381 35.2168 165.92 35.3379C166.463 35.459 166.902 35.6035 167.238 35.7715C167.574 35.9395 167.822 36.1426 167.982 36.3809C168.146 36.6152 168.229 36.9023 168.229 37.2422C168.229 37.8086 168.002 38.2637 167.549 38.6074C167.096 38.9473 166.508 39.1172 165.785 39.1172C165.277 39.1172 164.828 39.0273 164.438 38.8477C164.047 38.668 163.74 38.418 163.518 38.0977C163.299 37.7734 163.189 37.4238 163.189 37.0488H164.273C164.293 37.4121 164.438 37.7012 164.707 37.916C164.98 38.127 165.34 38.2324 165.785 38.2324C166.195 38.2324 166.523 38.1504 166.77 37.9863C167.02 37.8184 167.145 37.5957 167.145 37.3184ZM170.818 39H169.734V32.6602H170.818V39ZM169.646 30.9785C169.646 30.8027 169.699 30.6543 169.805 30.5332C169.914 30.4121 170.074 30.3516 170.285 30.3516C170.496 30.3516 170.656 30.4121 170.766 30.5332C170.875 30.6543 170.93 30.8027 170.93 30.9785C170.93 31.1543 170.875 31.3008 170.766 31.418C170.656 31.5352 170.496 31.5938 170.285 31.5938C170.074 31.5938 169.914 31.5352 169.805 31.418C169.699 31.3008 169.646 31.1543 169.646 30.9785ZM173.578 32.6602L173.607 33.3633C174.072 32.8164 174.699 32.543 175.488 32.543C176.375 32.543 176.979 32.8828 177.299 33.5625C177.51 33.2578 177.783 33.0117 178.119 32.8242C178.459 32.6367 178.859 32.543 179.32 32.543C180.711 32.543 181.418 33.2793 181.441 34.752V39H180.357V34.8164C180.357 34.3633 180.254 34.0254 180.047 33.8027C179.84 33.5762 179.492 33.4629 179.004 33.4629C178.602 33.4629 178.268 33.584 178.002 33.8262C177.736 34.0645 177.582 34.3867 177.539 34.793V39H176.449V34.8457C176.449 33.9238 175.998 33.4629 175.096 33.4629C174.385 33.4629 173.898 33.7656 173.637 34.3711V39H172.553V32.6602H173.578ZM186.996 38.373C186.574 38.8691 185.955 39.1172 185.139 39.1172C184.463 39.1172 183.947 38.9219 183.592 38.5312C183.24 38.1367 183.062 37.5547 183.059 36.7852V32.6602H184.143V36.7559C184.143 37.7168 184.533 38.1973 185.314 38.1973C186.143 38.1973 186.693 37.8887 186.967 37.2715V32.6602H188.051V39H187.02L186.996 38.373ZM190.881 39H189.797V30H190.881V39ZM196.535 39C196.473 38.875 196.422 38.6523 196.383 38.332C195.879 38.8555 195.277 39.1172 194.578 39.1172C193.953 39.1172 193.439 38.9414 193.037 38.5898C192.639 38.2344 192.439 37.7852 192.439 37.2422C192.439 36.582 192.689 36.0703 193.189 35.707C193.693 35.3398 194.4 35.1562 195.311 35.1562H196.365V34.6582C196.365 34.2793 196.252 33.9785 196.025 33.7559C195.799 33.5293 195.465 33.416 195.023 33.416C194.637 33.416 194.312 33.5137 194.051 33.709C193.789 33.9043 193.658 34.1406 193.658 34.418H192.568C192.568 34.1016 192.68 33.7969 192.902 33.5039C193.129 33.207 193.434 32.9727 193.816 32.8008C194.203 32.6289 194.627 32.543 195.088 32.543C195.818 32.543 196.391 32.7266 196.805 33.0938C197.219 33.457 197.434 33.959 197.449 34.5996V37.5176C197.449 38.0996 197.523 38.5625 197.672 38.9062V39H196.535ZM194.736 38.1738C195.076 38.1738 195.398 38.0859 195.703 37.9102C196.008 37.7344 196.229 37.5059 196.365 37.2246V35.9238H195.516C194.188 35.9238 193.523 36.3125 193.523 37.0898C193.523 37.4297 193.637 37.6953 193.863 37.8867C194.09 38.0781 194.381 38.1738 194.736 38.1738ZM200.619 31.125V32.6602H201.803V33.498H200.619V37.4297C200.619 37.6836 200.672 37.875 200.777 38.0039C200.883 38.1289 201.062 38.1914 201.316 38.1914C201.441 38.1914 201.613 38.168 201.832 38.1211V39C201.547 39.0781 201.27 39.1172 201 39.1172C200.516 39.1172 200.15 38.9707 199.904 38.6777C199.658 38.3848 199.535 37.9688 199.535 37.4297V33.498H198.381V32.6602H199.535V31.125H200.619ZM204.252 39H203.168V32.6602H204.252V39ZM203.08 30.9785C203.08 30.8027 203.133 30.6543 203.238 30.5332C203.348 30.4121 203.508 30.3516 203.719 30.3516C203.93 30.3516 204.09 30.4121 204.199 30.5332C204.309 30.6543 204.363 30.8027 204.363 30.9785C204.363 31.1543 204.309 31.3008 204.199 31.418C204.09 31.5352 203.93 31.5938 203.719 31.5938C203.508 31.5938 203.348 31.5352 203.238 31.418C203.133 31.3008 203.08 31.1543 203.08 30.9785ZM205.705 35.7715C205.705 35.1504 205.826 34.5918 206.068 34.0957C206.314 33.5996 206.654 33.2168 207.088 32.9473C207.525 32.6777 208.023 32.543 208.582 32.543C209.445 32.543 210.143 32.8418 210.674 33.4395C211.209 34.0371 211.477 34.832 211.477 35.8242V35.9004C211.477 36.5176 211.357 37.0723 211.119 37.5645C210.885 38.0527 210.547 38.4336 210.105 38.707C209.668 38.9805 209.164 39.1172 208.594 39.1172C207.734 39.1172 207.037 38.8184 206.502 38.2207C205.971 37.623 205.705 36.832 205.705 35.8477V35.7715ZM206.795 35.9004C206.795 36.6035 206.957 37.168 207.281 37.5938C207.609 38.0195 208.047 38.2324 208.594 38.2324C209.145 38.2324 209.582 38.0176 209.906 37.5879C210.23 37.1543 210.393 36.5488 210.393 35.7715C210.393 35.0762 210.227 34.5137 209.895 34.084C209.566 33.6504 209.129 33.4336 208.582 33.4336C208.047 33.4336 207.615 33.6465 207.287 34.0723C206.959 34.498 206.795 35.1074 206.795 35.9004ZM213.861 32.6602L213.896 33.457C214.381 32.8477 215.014 32.543 215.795 32.543C217.135 32.543 217.811 33.2988 217.822 34.8105V39H216.738V34.8047C216.734 34.3477 216.629 34.0098 216.422 33.791C216.219 33.5723 215.9 33.4629 215.467 33.4629C215.115 33.4629 214.807 33.5566 214.541 33.7441C214.275 33.9316 214.068 34.1777 213.92 34.4824V39H212.836V32.6602H213.861Z" fill="black"/>
</svg>
